<svg width="60" height="60" viewBox="0 0 60 60" fill="none" xmlns="http://www.w3.org/2000/svg">
<circle cx="30" cy="30" r="30" fill="#73732E"/>
<path d="M48.4026 30.7928C47.8472 28.9386 47.7467 27.0666 47.7467 25.1476C47.7467 24.4263 46.5939 24.3935 46.5939 25.1476C46.5939 26.6815 46.6288 28.1944 46.9408 29.7048C47.4109 31.9803 48.0931 34.1022 48.1812 36.4509L45.6728 33.2843C44.9947 32.428 44.0078 32.1472 42.9584 32.168C43.9807 31.2833 44.6109 29.9732 44.6471 28.6194C44.9987 28.4912 45.4651 28.2477 45.7972 27.7984C46.2259 27.2184 45.3184 26.5067 44.8701 27.1132C44.4704 27.654 43.7151 27.6932 43.1301 27.499C42.3035 27.2244 41.7319 26.4315 41.7319 25.5606V23.7752C41.7319 21.8459 39.9529 21.5908 38.4653 21.5908C36.7698 21.5908 35.3679 22.8675 35.1678 24.5099C34.24 24.4854 33.3617 24.9358 33.198 25.9339C33.198 22.0132 35.6385 18.4497 39.8959 18.4497C42.6772 18.4497 45.1274 20.1235 46.1382 22.7141C46.4004 23.3861 47.4862 22.9976 47.2122 22.295C46.0485 19.3127 43.097 17.2969 39.896 17.2969C35.5671 17.2969 32.0452 20.8187 32.0452 25.1476V26.3164C32.0452 28.4634 31.415 30.376 30.9626 32.4446C30.4709 31.5129 29.697 30.6982 29.0453 29.8766C28.597 29.3117 27.6734 30.0022 28.1421 30.5931C29.1937 31.9186 30.4435 33.176 30.4435 34.9883L30.4427 38.446H27.5512V36.225C27.5512 35.5036 26.3984 35.4708 26.3984 36.225V47.8473H19.8374C19.1161 47.8473 19.0833 49.0001 19.8374 49.0001H48.7728C49.0912 49.0001 49.3492 48.742 49.3492 48.4237V37.2536C49.3492 35.064 49.0306 32.8903 48.4026 30.7928ZM43.3635 33.3208C43.9148 33.3208 44.427 33.5683 44.769 34.0001L47.8093 37.8381C48.2978 38.4546 48.1964 39.2716 48.1964 40.0072H45.2286C44.9102 40.0072 44.6522 40.2652 44.6522 40.5836V47.8472H35.1404V40.5836C35.1404 40.2652 34.8824 40.0072 34.564 40.0072H31.5962C31.5962 39.2715 31.494 38.4556 31.9834 37.8379L35.0226 34.0003C35.3652 33.5684 35.8778 33.3207 36.429 33.3207H43.3635V33.3208ZM36.2952 24.9137C36.2952 23.7171 37.2687 22.7436 38.4653 22.7436H39.5466C40.9181 22.7436 40.5791 24.6862 40.5791 25.5606C40.5791 27.1938 41.8767 28.6005 43.4886 28.7442C43.4264 29.6296 43.0364 30.4837 42.3969 31.1191C41.7163 31.7954 40.8294 32.1672 39.898 32.168H39.8725C39.6258 32.166 39.383 32.1398 39.1507 32.09C39.1463 32.0891 39.1419 32.0882 39.1374 32.0873L39.1208 32.0841C39.1162 32.083 39.1117 32.082 39.1071 32.0809C37.4777 31.7175 36.2951 30.2395 36.2951 28.5664V24.9137H36.2952ZM34.8708 25.6627H35.142V27.4787C34.662 27.2588 34.3276 26.7726 34.3276 26.2057C34.3277 25.9063 34.5713 25.6627 34.8708 25.6627ZM32.4936 31.1236C32.9401 29.6326 33.1758 28.09 33.196 26.5349C33.3305 27.5952 34.1198 28.4536 35.1451 28.6908C35.1801 30.0171 35.7893 31.3029 36.7949 32.168C35.7579 32.1485 34.7848 32.4452 34.1191 33.2843L31.6106 36.4518C31.6783 34.6461 31.9744 32.8574 32.4936 31.1236ZM27.5512 39.5989H30.4426L30.4434 47.8473H27.5512V39.5989ZM31.5962 47.8473V41.1601H33.9876V47.8473H31.5962ZM48.1964 47.8473H45.805V41.1601H48.1964V47.8473Z" fill="white"/>
<path d="M17.1852 47.8471H15.1971V36.2248C15.1971 35.5034 14.0443 35.4706 14.0443 36.2248V38.4459H11.1528V34.9881C11.1528 34.024 11.4827 33.0774 12.082 32.3225L14.5105 29.2604C15.3288 28.2287 16.5535 27.6369 17.8703 27.6369H23.725C24.7222 27.6369 25.6941 27.9874 26.4619 28.6237C27.0171 29.0842 27.7782 28.2174 27.1975 27.7362C26.3264 27.0142 25.248 26.5834 24.1251 26.5001C25.4025 25.5132 26.2315 23.9737 26.2501 22.2426C27.4078 21.98 28.2751 20.9425 28.2751 19.6999C28.2751 19.0945 27.9619 18.5612 27.4893 18.2525C27.6248 17.4534 27.532 16.6149 27.22 15.8664C27.6468 13.3662 25.6646 11 23.1231 11H18.4726C15.9292 11 13.9447 13.3593 14.376 15.865C14.0626 16.6165 13.9703 17.4503 14.1064 18.2528C13.6339 18.5622 13.3207 19.0972 13.3207 19.7074C13.3207 20.9434 14.1879 21.98 15.3456 22.2425C15.3638 23.8996 16.1554 25.4874 17.4672 26.4992C15.9513 26.6097 14.5615 27.3408 13.6073 28.5439L11.1789 31.6057C10.4187 32.5637 10 33.7649 10 34.9882V48.4235C10 48.7418 10.258 48.9999 10.5764 48.9999H17.1852C17.9065 48.9999 17.9394 47.8471 17.1852 47.8471ZM26.2516 21.035V19.1249C26.6396 19.0666 27.1223 19.2446 27.1223 19.7077C27.1223 20.3009 26.7635 20.8118 26.2516 21.035ZM16.3472 13.0334C16.9149 12.4656 17.6698 12.153 18.4726 12.153H23.1231C26.9794 12.153 27.0133 18.1624 23.1231 18.1624H18.4726C15.8587 18.1624 14.4929 14.8878 16.3472 13.0334ZM15.3442 21.0349C14.8323 20.8114 14.4736 20.2989 14.4736 19.7001C14.4736 19.5142 14.5692 19.3366 14.7206 19.2302C14.9079 19.0984 15.1275 19.125 15.3442 19.125V21.0349ZM16.4972 22.1834V18.8152C17.0851 19.1339 17.7581 19.3152 18.4726 19.3152H23.1231C23.8245 19.3152 24.4991 19.1424 25.0988 18.8178V21.7311C25.1351 24.2292 23.4561 26.4842 20.798 26.4842C18.4666 26.4842 16.4972 24.5152 16.4972 22.1834ZM11.1528 39.5987H14.0443V47.8471H11.1528V39.5987Z" fill="white"/>
<path d="M20.798 37.9967C21.122 37.9967 21.4461 37.8733 21.6928 37.6266L23.7351 35.5843C24.5639 34.7555 24.6737 33.395 23.9656 32.4556C23.2284 31.4777 21.8313 31.2216 20.798 31.8807C19.7654 31.2222 18.367 31.4774 17.6297 32.4553C16.9216 33.3944 17.0328 34.7563 17.8609 35.5844L19.9032 37.6267C20.1499 37.8733 20.4738 37.9967 20.798 37.9967ZM18.6535 33.0295C19.0683 32.6086 19.7582 32.548 20.2383 32.8934C20.5731 33.1344 21.0229 33.1343 21.3575 32.8934C22.5571 32.0301 23.9569 33.732 22.9198 34.7691L20.8775 36.8114C20.8338 36.8553 20.7622 36.8555 20.7183 36.8114L18.6761 34.7691C18.1936 34.2868 18.1836 33.5064 18.6535 33.0295Z" fill="white"/>
<path d="M37.4328 37.2611C36.6559 38.0495 36.6664 39.3334 37.4562 40.1233L39.0969 41.764C39.5323 42.1992 40.2594 42.1994 40.6948 41.764L42.3356 40.1233C43.9623 38.4965 41.903 35.751 39.896 36.9349C39.1019 36.4665 38.093 36.5913 37.4328 37.2611ZM40.4116 37.9735C41.261 37.3619 42.2588 38.5696 41.5204 39.3081L39.8959 40.9326L38.2714 39.3081C37.5306 38.5672 38.5354 37.3655 39.3802 37.9735C39.6888 38.1955 40.1032 38.1954 40.4116 37.9735Z" fill="white"/>
<path d="M20.7977 25.0705C21.294 25.0705 21.7722 24.8897 22.1442 24.5615C22.7016 24.0697 21.939 23.2054 21.3815 23.6971C21.2202 23.8393 21.0129 23.9176 20.7977 23.9176C20.4834 23.9176 20.1903 23.7483 20.0327 23.4759C19.6602 22.8326 18.6625 23.4097 19.0348 24.0532C19.3978 24.6807 20.0733 25.0705 20.7977 25.0705Z" fill="white"/>
<path d="M20.7977 22.3077C21.1161 22.3077 21.3741 22.0497 21.3741 21.7313V20.8869C21.3741 20.5686 21.1161 20.3105 20.7977 20.3105C20.4793 20.3105 20.2213 20.5686 20.2213 20.8869V21.7313C20.2213 22.0497 20.4793 22.3077 20.7977 22.3077Z" fill="white"/>
<path d="M38.6451 30.5123C38.9966 30.8002 39.4409 30.9589 39.8958 30.9589C40.6911 30.9589 41.4052 30.4855 41.715 29.753C42.0047 29.0683 40.9428 28.6192 40.6533 29.304C40.5243 29.6089 40.227 29.8061 39.8959 29.8061C39.7038 29.8061 39.5239 29.7419 39.3757 29.6205C38.8005 29.1493 38.0699 30.0411 38.6451 30.5123Z" fill="white"/>
<path d="M39.8951 28.6231H39.8956C40.2137 28.6231 40.4717 28.3653 40.472 28.0472L40.4724 27.6174C40.4727 27.2991 40.2148 27.0408 39.8965 27.0405C39.8963 27.0405 39.8962 27.0405 39.896 27.0405C39.5779 27.0405 39.3199 27.2983 39.3196 27.6165L39.3192 28.0462C39.3189 28.3646 39.5768 28.6229 39.8951 28.6231Z" fill="white"/>
</svg>
