<svg width="60" height="60" viewBox="0 0 60 60" fill="none" xmlns="http://www.w3.org/2000/svg">
<circle cx="30" cy="30" r="30" fill="#73732E"/>
<path d="M29.9597 12C29.635 12 29.3716 12.2634 29.3716 12.5884V14.1226C29.3716 14.4475 29.635 14.7109 29.9597 14.7109C30.2847 14.7109 30.5481 14.4475 30.5481 14.1226V12.5884C30.5481 12.2634 30.2847 12 29.9597 12Z" fill="white"/>
<path d="M37 24.5C37 24.7761 36.7761 25 36.5 25C36.2239 25 36 24.7761 36 24.5C36 24.2239 36.2239 24 36.5 24C36.7761 24 37 24.2239 37 24.5Z" fill="white"/>
<path d="M41.5 25C41.7761 25 42 24.7761 42 24.5C42 24.2239 41.7761 24 41.5 24C41.2239 24 41 24.2239 41 24.5C41 24.7761 41.2239 25 41.5 25Z" fill="white"/>
<path d="M39 25.5C39 25.7761 38.7761 26 38.5 26C38.2239 26 38 25.7761 38 25.5C38 25.3677 38.0513 25.2476 38.1353 25.1582C38.2266 25.0608 38.3562 25 38.5 25C38.7761 25 39 25.2239 39 25.5Z" fill="white"/>
<path fill-rule="evenodd" clip-rule="evenodd" d="M46.9002 36.3792C46.8174 36.0649 46.4951 35.8777 46.1814 35.9602L43.0625 36.7827L40.8997 28.8379C41.8545 28.4565 42.6275 27.7871 43.1538 26.875C44.0642 25.2983 44.1812 23.1272 43.4922 20.5967C43.0794 19.0803 42.4141 17.5535 41.5679 16.1809C41.4319 15.9604 41.1675 15.8547 40.917 15.9209L33.1941 17.9578C33.0391 17.9985 32.9121 18.0991 32.8355 18.2307C32.7866 18.3147 32.7581 18.4114 32.7559 18.5134C32.7239 19.958 32.8828 21.4385 33.2156 22.8254C33.2193 22.845 33.2239 22.8643 33.2295 22.8833C33.2625 23.0183 33.2964 23.1526 33.3328 23.2856C34.3382 26.979 36.5044 29.1841 39.1282 29.1843C39.1946 29.1843 39.2613 29.1829 39.3279 29.1799C39.4724 29.1733 39.6177 29.1599 39.7625 29.1399L41.9248 37.083L38.8152 37.9031C38.501 37.9861 38.3135 38.3079 38.3963 38.6221C38.4661 38.886 38.7041 39.0603 38.9649 39.0603C38.9898 39.0603 39.0149 39.0586 39.0403 39.0554L39.0779 39.0493L39.1153 39.0408L46.4815 37.0981C46.7954 37.0151 46.9829 36.6934 46.9002 36.3792ZM33.9287 18.9807L40.7891 17.1714C41.4712 18.3496 42.0103 19.6323 42.357 20.9058C42.4575 21.2749 42.5388 21.6343 42.6016 21.9827C42.2439 21.9473 41.8792 21.9417 41.5076 21.9565C41.4744 21.7302 41.4331 21.4988 41.3897 21.2795L41.3479 21.0742C41.3223 20.9519 41.2967 20.8357 41.2722 20.7288C41.2005 20.4119 40.885 20.2134 40.5684 20.2854C40.5523 20.2891 40.5364 20.2935 40.521 20.2981L40.4939 20.3074C40.409 20.3389 40.335 20.3884 40.2752 20.4507C40.2642 20.4619 40.2537 20.4739 40.2439 20.4861C40.2256 20.5085 40.2088 20.5322 40.1939 20.5571C40.1678 20.6006 40.1472 20.6475 40.1331 20.6968C40.1065 20.7891 40.1023 20.8892 40.125 20.9895C40.2144 21.3821 40.2845 21.7439 40.3323 22.0537L40.0603 22.0857C39.8919 22.1062 39.7222 22.1277 39.5515 22.1494L39.5244 22.1531C37.9971 22.3479 36.2779 22.5671 34.2818 22.2109C34.0562 21.1633 33.9356 20.0659 33.9287 18.9807ZM39.1282 28.0078C37.1736 28.0076 35.5064 26.3147 34.6079 23.4524C35.2639 23.5425 35.8877 23.5791 36.4827 23.5791C37.6428 23.5791 38.6953 23.4448 39.6734 23.3201C40.8267 23.1729 41.843 23.0435 42.7469 23.1855C42.8152 24.4111 42.6109 25.4622 42.135 26.2866C41.6685 27.0947 40.9427 27.6482 40.0359 27.8875C39.8872 27.9268 39.7378 27.9565 39.5889 27.9766C39.5052 27.9878 39.4214 27.9961 39.3379 28.0012C39.2678 28.0056 39.198 28.0078 39.1282 28.0078Z" fill="white"/>
<path d="M18.5 25C18.7762 25 19 24.7761 19 24.5C19 24.2239 18.7762 24 18.5 24C18.2239 24 18 24.2239 18 24.5C18 24.7761 18.2239 25 18.5 25Z" fill="white"/>
<path d="M24 24.5C24 24.7761 23.7761 25 23.5 25C23.2239 25 23 24.7761 23 24.5C23 24.2239 23.2239 24 23.5 24C23.7761 24 24 24.2239 24 24.5Z" fill="white"/>
<path d="M20.5 26C20.7762 26 21 25.7761 21 25.5C21 25.2239 20.7762 25 20.5 25C20.4219 25 20.3477 25.0178 20.2818 25.0498L20.2615 25.0603L20.2412 25.072C20.2156 25.0876 20.1917 25.1055 20.1695 25.125C20.1382 25.1526 20.1104 25.1841 20.0867 25.2188C20.0662 25.2485 20.0491 25.2808 20.0354 25.3147C20.0125 25.3721 20 25.4346 20 25.5C20 25.5732 20.0159 25.6428 20.0442 25.7056C20.0821 25.7898 20.1426 25.8616 20.218 25.9131C20.2984 25.968 20.3955 26 20.5 26Z" fill="white"/>
<path fill-rule="evenodd" clip-rule="evenodd" d="M27.1638 18.5137C27.158 18.2515 26.9793 18.0247 26.7256 17.9578L19.0025 15.9211C18.7525 15.855 18.4878 15.9607 18.3518 16.1812C17.5056 17.5537 16.8404 19.0806 16.4275 20.5969C15.7386 23.1274 15.8555 25.2986 16.7657 26.8752C17.2923 27.7874 18.0652 28.4568 19.02 28.8384L16.8572 36.783L13.7386 35.9604C13.4246 35.8777 13.1026 36.0649 13.0196 36.3792C12.9368 36.6934 13.1243 37.0151 13.4385 37.0981L20.8047 39.041C20.8377 39.0496 20.8706 39.0554 20.9031 39.0583C20.9204 39.0598 20.9378 39.0605 20.9551 39.0605C21.2158 39.0605 21.4539 38.886 21.5235 38.6221C21.6065 38.3079 21.419 37.9861 21.1048 37.9033L17.9949 37.083L20.1573 29.1399C20.2886 29.1582 20.4199 29.1709 20.5511 29.178C20.6316 29.1824 20.7119 29.1846 20.792 29.1846C23.4153 29.1846 25.5818 26.9795 26.5872 23.2859C27 21.7693 27.1995 20.1189 27.1638 18.5137ZM25.4519 22.9768C24.5943 26.1272 22.8523 28.0078 20.792 28.0078C20.5987 28.0078 20.4031 27.9912 20.2075 27.9578C20.0994 27.9395 19.9912 27.916 19.8836 27.8877C18.9771 27.6484 18.2512 27.095 17.7847 26.2869C17.2312 25.3284 17.0449 24.0637 17.2281 22.5742C18.0135 22.7019 18.7552 22.7515 19.458 22.7515C19.898 22.7515 20.323 22.7327 20.7349 22.7026C21.1348 22.6733 21.522 22.6335 21.8982 22.5903L22.2827 22.5449L22.6487 22.4998C23.7539 22.3628 24.7349 22.2419 25.6067 22.3511L25.5779 22.4766L25.542 22.627C25.5135 22.7444 25.4834 22.8611 25.4519 22.9768ZM25.8216 21.1934C24.7788 21.0515 23.6685 21.188 22.5042 21.332C21.0154 21.5164 19.3457 21.7229 17.4346 21.4167C17.4527 21.3386 17.4715 21.26 17.4912 21.1809C17.5139 21.0898 17.5376 20.9983 17.5628 20.906C17.9095 19.6326 18.4485 18.3499 19.1306 17.1716L20.0652 17.4182C19.8958 17.7446 19.7395 18.0801 19.6179 18.3533C19.5706 18.4592 19.5572 18.5718 19.573 18.6785C19.6016 18.8708 19.7249 19.0452 19.9158 19.1301C19.9934 19.1648 20.0747 19.1812 20.1548 19.1812C20.3799 19.1812 20.595 19.0513 20.6924 18.8323C20.8828 18.4053 21.0689 18.0266 21.2346 17.7266L25.9912 18.981C25.9864 19.7192 25.9287 20.4631 25.8216 21.1934Z" fill="white"/>
<path d="M27.5 34C27.71 34 27.8899 33.8704 27.9641 33.6868C27.9754 33.6589 27.9842 33.6301 27.9903 33.6001C27.9966 33.5679 28 33.5344 28 33.5C28 33.3508 27.9348 33.217 27.8311 33.1255C27.7759 33.0767 27.71 33.0398 27.6372 33.019C27.5935 33.0066 27.5476 33 27.5 33C27.2239 33 27 33.2239 27 33.5C27 33.6797 27.0948 33.8374 27.2371 33.9253C27.2761 33.9495 27.3189 33.9685 27.3643 33.9812C27.4075 33.9934 27.4529 34 27.5 34Z" fill="white"/>
<path d="M33 34.5C33 34.7761 32.7761 35 32.5 35C32.3704 35 32.2522 34.9507 32.1634 34.8696C32.063 34.7781 32 34.6465 32 34.5C32 34.2239 32.2239 34 32.5 34C32.7761 34 33 34.2239 33 34.5Z" fill="white"/>
<path d="M29.5 36C29.7761 36 30 35.7761 30 35.5C30 35.2239 29.7761 35 29.5 35C29.2239 35 29 35.2239 29 35.5C29 35.7761 29.2239 36 29.5 36Z" fill="white"/>
<path fill-rule="evenodd" clip-rule="evenodd" d="M33.5696 46.8159C33.8941 46.8218 34.1531 47.0898 34.1472 47.4146C34.1416 47.7393 33.8736 47.998 33.5489 47.9924L25.9319 47.8574C25.8799 47.8567 25.8296 47.8489 25.7818 47.8354C25.6531 47.7991 25.5428 47.72 25.4663 47.615C25.4434 47.5835 25.4236 47.5496 25.4073 47.5139C25.3716 47.4365 25.3523 47.3499 25.354 47.259C25.3599 46.9341 25.6277 46.6753 25.9527 46.6812L29.1682 46.738L29.2488 38.5063C29.0369 38.4768 28.8289 38.4338 28.6262 38.3765C26.1016 37.6624 24.617 34.9509 24.6546 31.1235C24.6558 30.9856 24.6597 30.8469 24.6648 30.708C24.6646 30.6882 24.6653 30.6685 24.667 30.6487C24.7241 29.2234 24.9741 27.7556 25.398 26.3743C25.4519 26.1992 25.5821 26.0637 25.7449 25.9995C25.7864 25.9832 25.8301 25.9714 25.8753 25.9648C25.9065 25.9602 25.9385 25.9583 25.971 25.9587L33.9568 26.1003C34.0806 26.1025 34.1968 26.1433 34.292 26.2124C34.396 26.2881 34.4751 26.3975 34.5122 26.5276C34.9529 28.0784 35.1778 29.7288 35.1624 31.3003C35.1367 33.9229 34.4334 35.98 33.1284 37.2495C32.3736 37.9841 31.4478 38.418 30.4251 38.5251L30.3445 46.7588L33.5696 46.8159ZM33.4934 27.2688L26.3994 27.1431C26.198 27.8733 26.0481 28.6243 25.9529 29.375C25.9116 29.6997 25.8806 30.0244 25.8601 30.3474C27.6841 31.2332 29.3982 31.4902 30.9207 31.7183L30.9427 31.7212C31.2063 31.761 31.4678 31.8003 31.7254 31.8425C31.7635 31.5312 31.7945 31.1641 31.8155 30.7622C31.8323 30.4377 32.1092 30.1882 32.4336 30.2053C32.7578 30.2222 33.0074 30.499 32.9903 30.8232C32.9717 31.1799 32.9392 31.6372 32.8826 32.0688C33.1016 32.1216 33.3162 32.1807 33.5257 32.2483C33.6619 32.2922 33.7962 32.3398 33.9282 32.3916C33.9627 32.0393 33.9822 31.6714 33.9859 31.2888C33.9988 29.969 33.8291 28.5881 33.4934 27.2688ZM25.8362 31.6309C25.9219 34.6296 27.0657 36.7122 28.9463 37.2441C29.0452 37.272 29.146 37.2957 29.2486 37.3149C29.2937 37.3232 29.3391 37.3311 29.3848 37.3376C29.4175 37.3425 29.4505 37.3467 29.4834 37.3506L29.5872 37.3613L29.6607 37.3672C29.7244 37.3716 29.7884 37.3743 29.8528 37.3755C30.7903 37.3921 31.6394 37.0569 32.3081 36.4062C32.9905 35.7424 33.4732 34.7866 33.7407 33.5886C32.9097 33.2061 31.8965 33.054 30.7466 32.8818C29.7715 32.7358 28.7222 32.5786 27.6057 32.2629C27.0335 32.1011 26.4429 31.896 25.8362 31.6309Z" fill="white"/>
<path d="M26.326 13.5562L27.1055 14.885C27.1197 14.9092 27.1319 14.9338 27.1421 14.9587C27.1582 14.9976 27.1697 15.0376 27.177 15.0779C27.1909 15.1555 27.189 15.2341 27.1724 15.3093C27.1382 15.4636 27.0425 15.6038 26.8955 15.6902C26.802 15.7451 26.6997 15.771 26.5984 15.771C26.4866 15.771 26.3767 15.739 26.2823 15.679C26.2437 15.6545 26.2075 15.6252 26.1748 15.5916L26.1519 15.5662C26.1438 15.5569 26.1363 15.5474 26.1289 15.5376L26.1145 15.5178L26.0999 15.4954L26.0906 15.4802L25.3111 14.1514C25.1468 13.8713 25.2405 13.5107 25.5208 13.3464C25.8011 13.1819 26.1614 13.2759 26.326 13.5562Z" fill="white"/>
<path d="M34.399 13.3464C34.1187 13.1819 33.7583 13.2759 33.5938 13.5562L32.8142 14.885C32.6499 15.1653 32.7439 15.5256 33.0242 15.6902C33.0803 15.7231 33.1399 15.7456 33.2002 15.7583L33.2207 15.7625L33.2434 15.7659L33.2749 15.7693L33.3028 15.7708L33.3211 15.771C33.3343 15.771 33.3472 15.7705 33.3601 15.7695C33.3762 15.7686 33.3924 15.7668 33.4082 15.7646L33.4346 15.76L33.4646 15.7532C33.4807 15.7493 33.4966 15.7446 33.5122 15.7393C33.6409 15.6953 33.7549 15.6067 33.8291 15.4802L34.6087 14.1514C34.773 13.8711 34.679 13.5107 34.399 13.3464Z" fill="white"/>
</svg>
