<svg width="60" height="60" viewBox="0 0 60 60" fill="none" xmlns="http://www.w3.org/2000/svg">
<circle cx="30" cy="30" r="30" fill="#73732E"/>
<path d="M33.4363 38.9626H33.4304C33.123 38.9626 32.8767 39.2119 32.8767 39.5193C32.8767 39.8267 33.1289 40.0759 33.4363 40.0759C33.7437 40.0759 33.993 39.8268 33.993 39.5193C33.993 39.2119 33.7437 38.9626 33.4363 38.9626Z" fill="white"/>
<path d="M39.5811 34.6652L34.1365 32.3318C33.7081 32.1482 33.4238 31.7409 33.395 31.2802C37.5691 30.1812 40.2526 27.5349 40.3685 27.4189C40.5637 27.2237 40.5856 26.9139 40.4209 26.6923C40.4041 26.6698 38.7466 24.4022 38.7466 21.0758V19.8859C38.7466 14.9862 34.7604 11 29.8607 11C24.961 11 20.9748 14.9862 20.9748 19.8859V21.0758C20.9748 24.4021 19.3172 26.6698 19.3012 26.6914C19.135 26.913 19.1571 27.2231 19.3529 27.4189C19.4688 27.5349 22.1523 30.1812 26.3264 31.2802C26.2975 31.7409 26.0132 32.1482 25.5849 32.3318L20.1403 34.6652C18.8401 35.2224 18 36.4965 18 37.911V46.0636C18 47.6828 19.3173 49 20.9365 49H26.291C27.5821 49 28.6325 47.9497 28.6325 46.6585C28.6325 46.6457 28.6317 46.633 28.6315 46.6202H31.0898C31.0895 46.633 31.0888 46.6457 31.0888 46.6585C31.0888 47.9497 32.1391 49 33.4303 49H38.7848C40.4039 49 41.7213 47.6827 41.7213 46.0636V37.911C41.7214 36.4965 40.8812 35.2224 39.5811 34.6652ZM35.1602 33.9818L37.0383 34.7867V38.2673C36.2202 37.5874 35.1697 37.1777 34.0253 37.1777H33.762C34.5663 36.3079 35.0666 35.1846 35.1602 33.9818ZM35.8091 38.7648C35.6021 39.893 34.5979 40.7475 33.4304 40.7475C32.0971 40.7475 31.0123 39.6627 31.0123 38.3293C31.0123 38.3166 31.013 38.3038 31.0132 38.291H34.0253C34.6739 38.291 35.2825 38.464 35.8091 38.7648ZM39.248 26.9344C38.4584 27.6184 36.32 29.2854 33.3921 30.1258V28.9174C35.1809 27.7568 36.3669 25.7422 36.3669 23.4556V20.4479C36.7738 20.4434 37.1961 20.4235 37.6334 20.3859V21.0759C37.6334 23.9434 38.7184 26.0681 39.248 26.9344ZM29.8607 12.1133C33.9393 12.1133 37.2939 15.2709 37.6089 19.2699C34.1673 19.5802 31.7606 18.7221 30.3276 17.925C28.7027 17.0212 27.9377 15.9978 27.9312 15.9891C27.8169 15.8318 27.6291 15.7454 27.4351 15.7615C27.2413 15.7775 27.0699 15.8934 26.983 16.0674C26.3148 17.4037 25.2055 18.3575 23.6861 18.9026C23.0715 19.123 22.5081 19.2296 22.1114 19.2811C22.4211 15.2768 25.7784 12.1133 29.8607 12.1133ZM20.4735 26.9344C21.003 26.0682 22.0881 23.9434 22.0881 21.0758V20.4073C23.2537 20.2843 25.9592 19.7325 27.5797 17.2601C28.0178 17.6954 28.7249 18.2991 29.727 18.8646C30.9368 19.5473 32.772 20.2716 35.2535 20.4208V23.4556C35.2535 26.4292 32.8343 28.8485 29.8607 28.8485C26.8871 28.8485 24.4679 26.4292 24.4679 23.4556V21.6708C24.4679 21.3633 24.2187 21.1142 23.9112 21.1142C23.6038 21.1142 23.3546 21.3633 23.3546 21.6708V23.4556C23.3546 25.7422 24.5405 27.7568 26.3294 28.9174V30.1258C23.4012 29.2853 21.2627 27.6181 20.4735 26.9344ZM25.6598 33.511L26.0235 33.3551C26.8856 32.9856 27.4426 32.1409 27.4426 31.2029V29.4955C28.1906 29.796 29.0067 29.9617 29.8608 29.9617C30.7149 29.9617 31.5309 29.796 32.2789 29.4955V31.2029C32.2789 32.1408 32.8359 32.9856 33.698 33.3551L34.0628 33.5114C34.0631 33.5309 34.0638 33.5503 34.0638 33.5697C34.0638 35.05 33.2821 36.4197 32.0145 37.1777H27.7072C26.4397 36.4197 25.658 35.05 25.658 33.5697C25.658 33.5502 25.6595 33.5306 25.6598 33.511ZM22.6831 34.7867L24.5612 33.9818C24.6548 35.1846 25.1552 36.3079 25.9594 37.1777H25.6961C24.5517 37.1777 23.5013 37.5873 22.6831 38.2673V34.7867ZM26.291 47.8868H20.9365C19.9312 47.8868 19.1133 47.0689 19.1133 46.0637V37.911C19.1133 36.9424 19.6886 36.07 20.5789 35.6885L21.5697 35.2638V39.6082C21.1913 40.2871 20.9748 41.0681 20.9748 41.899C20.9748 43.0698 21.4065 44.193 22.1904 45.0614C22.4025 45.2964 22.7122 45.4311 23.0401 45.4311C23.0402 45.4311 23.0403 45.4311 23.0404 45.4311L26.2907 45.4303C26.2908 45.4303 26.2909 45.4303 26.291 45.4303C26.619 45.4303 26.9273 45.558 27.1594 45.79C27.3914 46.0219 27.5192 46.3303 27.5192 46.6585C27.5192 47.3358 26.9682 47.8868 26.291 47.8868ZM28.1046 41.3805C28.9532 42.9723 30.1285 44.253 31.6035 45.1966C31.5254 45.294 31.455 45.3977 31.393 45.507H28.3302V45.507C28.2268 45.3247 28.0987 45.1549 27.9465 45.0027C27.5043 44.5606 26.9164 44.3172 26.2911 44.3172C26.2909 44.3172 26.2907 44.3172 26.2905 44.3172L23.0402 44.318C23.0251 44.318 23.0157 44.314 23.0169 44.3156C22.418 43.6521 22.0881 42.7939 22.0881 41.899C22.0881 39.9096 23.7067 38.2911 25.6961 38.2911H27.0044C27.0531 38.548 27.1297 38.8901 27.2489 39.2916C27.3206 39.5335 27.5422 39.6901 27.7823 39.6901C27.8347 39.6901 27.888 39.6826 27.9409 39.6669C28.2356 39.5795 28.4036 39.2696 28.3162 38.975C28.239 38.7149 28.1823 38.4841 28.1405 38.291H29.9C29.8999 38.3038 29.8991 38.3166 29.8991 38.3293C29.8991 40.2765 31.4833 41.8607 33.4305 41.8607C34.3195 41.8607 35.1688 41.5293 35.8223 40.9274C36.2428 40.5402 36.5578 40.0629 36.7491 39.5368C37.2992 40.1703 37.6334 40.9962 37.6334 41.899C37.6334 42.7934 37.3038 43.6515 36.7086 44.3118C36.7064 44.3132 36.6969 44.3172 36.6822 44.3172L33.4306 44.3171C33.1272 44.3171 32.8375 44.3757 32.5712 44.4811C31.0853 43.6242 29.9131 42.4065 29.087 40.8568C28.9423 40.5855 28.6053 40.4829 28.3339 40.6274C28.0627 40.772 27.96 41.1092 28.1046 41.3805ZM40.6083 46.0637H40.6082C40.6082 47.069 39.7903 47.8868 38.785 47.8868H33.4305C32.7532 47.8868 32.2023 47.3358 32.2023 46.6586C32.2023 45.9814 32.7532 45.4304 33.4305 45.4304L36.6821 45.4306C36.6822 45.4306 36.6822 45.4306 36.6822 45.4306C37.0101 45.4306 37.3198 45.2958 37.5319 45.0607C38.3153 44.1923 38.7467 43.0695 38.7467 41.899C38.7467 41.0682 38.5302 40.2872 38.1518 39.6083V35.2639L39.1427 35.6885C40.033 36.0701 40.6083 36.9425 40.6083 37.9111V46.0637Z" fill="white"/>
<path d="M28.4005 21.5173C28.1507 21.3381 27.803 21.3952 27.6237 21.6449C27.5614 21.7317 27.4088 21.8329 27.1834 21.8329C26.9581 21.8329 26.8055 21.7317 26.7432 21.645C26.564 21.3952 26.2163 21.3381 25.9665 21.5173C25.7167 21.6966 25.6596 22.0443 25.8389 22.2941C26.1318 22.7024 26.6345 22.9462 27.1834 22.9462C27.7322 22.9462 28.2348 22.7024 28.528 22.2942C28.7073 22.0444 28.6501 21.6966 28.4005 21.5173Z" fill="white"/>
<path d="M32.0412 24.849C31.825 24.6305 31.4725 24.6286 31.254 24.8448C31.0509 25.0458 30.5641 25.2806 29.8607 25.2806C29.1574 25.2806 28.6705 25.0458 28.4674 24.8448C28.2488 24.6286 27.8964 24.6304 27.6801 24.849C27.4639 25.0675 27.4658 25.42 27.6843 25.6362C28.1637 26.1106 28.9774 26.3938 29.8606 26.3938C30.7439 26.3938 31.5576 26.1106 32.037 25.6362C32.2555 25.42 32.2574 25.0675 32.0412 24.849Z" fill="white"/>
<path d="M33.755 21.5173C33.5053 21.3381 33.1575 21.3952 32.9783 21.645C32.916 21.7317 32.7634 21.8329 32.5381 21.8329C32.3127 21.8329 32.1601 21.7317 32.0978 21.6449C31.9185 21.3952 31.5708 21.3381 31.321 21.5173C31.0713 21.6966 31.0142 22.0444 31.1935 22.2942C31.4865 22.7024 31.9891 22.9462 32.538 22.9462C33.0869 22.9462 33.5895 22.7024 33.8826 22.2941C34.0619 22.0443 34.0048 21.6966 33.755 21.5173Z" fill="white"/>
</svg>
