<svg width="60" height="60" viewBox="0 0 60 60" fill="none" xmlns="http://www.w3.org/2000/svg">
<circle cx="30" cy="30" r="30" fill="#73732E"/>
<path d="M37.0909 12.0271C35.9949 12.0271 35.1067 12.9157 35.1067 14.0116C35.1067 15.1076 35.9949 15.9958 37.0909 15.9958C38.1868 15.9958 39.0754 15.1076 39.0754 14.0116C39.0754 12.9157 38.1868 12.0271 37.0909 12.0271ZM37.0909 14.6731C36.7256 14.6731 36.4294 14.3769 36.4294 14.0116C36.4294 13.6463 36.7256 13.3501 37.0909 13.3501C37.4562 13.3501 37.7524 13.6463 37.7524 14.0116C37.7524 14.3769 37.4562 14.6731 37.0909 14.6731Z" fill="white"/>
<path d="M30.1107 13.2808C28.2841 13.2808 26.8035 14.7614 26.8035 16.588C26.8035 18.4145 28.2841 19.8955 30.1107 19.8955C31.9373 19.8955 33.4182 18.4145 33.4182 16.588C33.416 14.7624 31.9363 13.2827 30.1107 13.2808ZM30.1107 18.5725C29.0147 18.5725 28.1262 17.6839 28.1262 16.588C28.1262 15.492 29.0147 14.6035 30.1107 14.6035C31.2066 14.6035 32.0952 15.492 32.0952 16.588C32.0952 17.6839 31.2066 18.5725 30.1107 18.5725Z" fill="white"/>
<path d="M20.8503 14.603C19.389 14.603 18.2042 15.7878 18.2042 17.2491C18.2042 18.7103 19.389 19.8951 20.8503 19.8951C22.3115 19.8951 23.496 18.7103 23.496 17.2491C23.496 15.7878 22.3115 14.603 20.8503 14.603ZM20.8503 18.5721C20.1193 18.5721 19.5272 17.9797 19.5272 17.2491C19.5272 16.5184 20.1193 15.926 20.8503 15.926C21.5809 15.926 22.1729 16.5184 22.1729 17.2491C22.1729 17.9797 21.5806 18.5721 20.8503 18.5721Z" fill="white"/>
<path d="M15.8541 11C14.7581 11 13.8699 11.8886 13.8699 12.9845C13.8699 14.0805 14.7581 14.9687 15.8541 14.9687C16.95 14.9687 17.8386 14.0805 17.8386 12.9845C17.8386 11.8886 16.95 11 15.8541 11ZM15.8541 13.646C15.4888 13.646 15.1926 13.3498 15.1926 12.9845C15.1926 12.6192 15.4888 12.323 15.8541 12.323C16.2194 12.323 16.5156 12.6192 16.5156 12.9845C16.5156 13.3498 16.2194 13.646 15.8541 13.646Z" fill="white"/>
<path d="M32.9391 31.2236L34.1907 30.7979L38.4692 43.3723L37.2172 43.798L32.9391 31.2236Z" fill="white"/>
<path d="M29.5552 32.3714L30.8068 31.9453L35.0853 44.5198L33.8333 44.9458L29.5552 32.3714Z" fill="white"/>
<path d="M36.3231 30.07L37.5751 29.6443L41.8519 42.2187L40.6003 42.6445L36.3231 30.07Z" fill="white"/>
<path d="M48.9133 34.4199L45.7876 25.2302C45.1251 23.2818 43.0088 22.2395 41.0605 22.902C41.0601 22.9023 41.0598 22.9023 41.0595 22.9023L39.2668 23.5121L39.1512 23.171C38.3085 20.6884 35.613 19.359 33.1308 20.2017C32.2374 20.5047 31.4547 21.067 30.8827 21.817C29.7254 21.7305 28.5952 22.1965 27.8352 23.0738C27.6924 23.027 27.5467 22.9905 27.3988 22.964C26.9098 22.879 26.4088 22.8926 25.9249 23.0037C24.0309 21.1904 21.026 21.256 19.2126 23.15C18.5618 23.83 18.1274 24.6885 17.9655 25.6158L17.9032 25.9711L16.0379 25.6449C14.0107 25.2903 12.0801 26.6459 11.7251 28.673V28.6737L10.0555 38.2345C9.7038 40.2617 11.0591 42.191 13.085 42.5476L14.9497 42.8735L14.8902 43.2136C13.9852 43.4248 13.4228 44.3299 13.6341 45.2349C13.7878 45.8926 14.3198 46.3948 14.9855 46.5105L29.0749 48.9743C29.1708 48.9915 29.2677 49.0002 29.3646 49.0002C30.0222 48.9973 30.6178 48.6119 30.8901 48.0134C31.1844 48.0806 31.4919 48.0635 31.7771 47.9643L45.3196 43.357C46.1997 43.0576 46.6704 42.1012 46.3709 41.221C46.1539 40.5828 45.577 40.1357 44.9048 40.0847L44.7937 39.7588L46.5854 39.149C48.5325 38.4839 49.5735 36.3686 48.9133 34.4199ZM38.1147 24.2234L38.3466 24.9059L33.7952 26.4543L33.561 25.7718L38.1147 24.2234ZM27.1071 24.7279C27.3859 24.6333 27.6798 24.5913 27.9741 24.6045C28.216 24.6165 28.4444 24.4944 28.5687 24.287L28.571 24.2877C29.09 23.4285 30.0897 22.9843 31.0752 23.1749C31.3433 23.2263 31.6156 23.1081 31.7606 22.8765C32.1747 22.2104 32.8075 21.7091 33.5504 21.4578C35.0995 20.933 36.8036 21.5754 37.6205 22.9924L32.5061 24.7327C32.1611 24.8513 31.9773 25.2269 32.0952 25.5722L33.082 28.4741C33.2209 28.9347 32.9596 29.4205 32.499 29.5594C32.0613 29.6911 31.5962 29.4621 31.4337 29.0348L31.103 28.0677C30.9967 27.7183 30.6269 27.5212 30.2774 27.6278C29.9279 27.7344 29.7309 28.1039 29.8375 28.4534C29.8417 28.4673 29.8462 28.4809 29.8513 28.4944C29.998 28.9528 29.7451 29.4431 29.2867 29.5894C28.84 29.7322 28.3604 29.4954 28.2018 29.0539L27.5403 27.1191C27.4224 26.7738 27.047 26.589 26.7014 26.7063L25.4918 27.1178C25.4375 26.0503 26.0961 25.0758 27.1071 24.7279ZM26.7366 28.8584L26.0538 29.0904L25.8225 28.4079L26.5044 28.1763L26.7366 28.8584ZM23.2353 23.0586L23.2372 23.0593C24.0118 23.1917 24.7156 23.5893 25.2292 24.1836C25.2638 24.2211 25.3032 24.2544 25.3455 24.2828C24.83 24.766 24.4614 25.3852 24.2825 26.069L19.4536 25.2043C20.0415 23.6791 21.6245 22.7809 23.2353 23.0586ZM19.1568 26.5015L24.182 27.3998C24.2082 27.6498 24.2602 27.8962 24.3367 28.1352L19.0331 27.2092L19.1568 26.5015ZM13.3095 41.2443C12.0039 41.0123 11.1321 39.7685 11.3585 38.4623L13.0314 28.9008C13.2591 27.5939 14.503 26.7189 15.8098 26.9466C15.8111 26.9469 15.8124 26.9469 15.8137 26.9472L17.6777 27.2728L17.554 27.9831L16.1926 27.7451C14.9991 27.5361 13.8621 28.3345 13.6531 29.528C13.6528 29.529 13.6528 29.53 13.6525 29.5309L12.1564 38.086C11.9483 39.2801 12.7481 40.4171 13.9422 40.6254L15.3037 40.8634L15.18 41.5737L13.3095 41.2443ZM17.3257 29.2864L15.5298 39.5575L14.1674 39.3195C13.6938 39.2365 13.377 38.7853 13.46 38.3117C13.46 38.3117 13.4603 38.3117 13.4603 38.3114L14.9565 29.7561C15.0408 29.2829 15.491 28.967 15.9645 29.048L17.3257 29.2864ZM29.7209 47.3781C29.6863 47.5741 29.4993 47.7053 29.3032 47.6707V47.672L15.2136 45.2072C15.0165 45.1797 14.8789 44.9975 14.9064 44.8005C14.9342 44.6032 15.1163 44.4656 15.3134 44.4933C15.3218 44.4943 15.3298 44.4959 15.3379 44.4975C15.6981 44.5602 16.0404 44.3196 16.1034 43.9597L18.8063 28.507L24.819 29.5587L29.4289 43.1131L28.8898 46.1949C28.8594 46.3677 28.8991 46.5454 29.0002 46.6891C29.1013 46.8325 29.2551 46.9301 29.4282 46.9601C29.6243 46.9947 29.7554 47.1817 29.7209 47.3781ZM45.119 41.6474C45.1833 41.8354 45.0831 42.0398 44.8951 42.1041C44.8948 42.1041 44.8948 42.1044 44.8948 42.1044L31.3523 46.712C31.1637 46.7766 30.9589 46.6762 30.8943 46.4875C30.8297 46.2989 30.9302 46.0941 31.1188 46.0295C31.4647 45.912 31.6498 45.5363 31.5322 45.1904V45.19L26.4805 30.3394L27.2689 30.0713C27.9821 31.0458 29.35 31.2577 30.3242 30.5445C30.4428 30.458 30.5523 30.3594 30.6511 30.2506C30.8336 30.4454 31.0494 30.6052 31.2887 30.7231C32.3759 31.258 33.6912 30.8103 34.2264 29.7231C34.4832 29.2012 34.5223 28.5988 34.3349 28.048L34.2186 27.7073L38.7707 26.1582L43.8231 41.0088C43.9407 41.3547 44.316 41.5401 44.6623 41.4229C44.6626 41.4226 44.6629 41.4226 44.6632 41.4222C44.8509 41.3593 45.0547 41.4597 45.119 41.6474ZM40.3524 26.6979L41.6606 26.2528C42.1157 26.0978 42.6106 26.341 42.7656 26.7961C42.7656 26.7964 42.7659 26.7971 42.7659 26.7977L45.5634 35.0194C45.7178 35.4748 45.4743 35.9693 45.0192 36.1247L43.7107 36.5698L40.3524 26.6979ZM46.1607 37.8941L44.369 38.5039L44.1342 37.8214L45.443 37.376C46.5893 36.9842 47.202 35.739 46.8131 34.592L44.015 26.3697C43.6228 25.2244 42.3783 24.6116 41.2313 24.9992L39.9232 25.4443L39.6916 24.7625L41.4881 24.1552C42.7452 23.7276 44.1109 24.3997 44.5389 25.6569L47.6623 34.8446C48.088 36.1011 47.4162 37.4651 46.1607 37.8941Z" fill="white"/>
<path d="M21.7521 45.4709L24.0405 32.3877L25.3439 32.6157L23.0551 45.6989L21.7521 45.4709Z" fill="white"/>
<path d="M25.2803 46.0904L26.5632 38.3093L27.8682 38.5244L26.5849 46.3056L25.2803 46.0904Z" fill="white"/>
<path d="M18.236 44.8518L20.5244 31.7673L21.8277 31.9951L19.539 45.0795L18.236 44.8518Z" fill="white"/>
</svg>
