<svg width="60" height="60" viewBox="0 0 60 60" fill="none" xmlns="http://www.w3.org/2000/svg">
<circle cx="30" cy="30" r="30" fill="#73732E"/>
<path d="M40.2336 28.1914C37.8234 23.7836 37.4079 19.5645 37.4836 16.8012C37.5661 13.7936 38.2317 11.8055 38.2384 11.7859C38.3443 11.4758 38.1791 11.1384 37.869 11.0323C37.559 10.9258 37.2212 11.0912 37.1149 11.4015C37.0854 11.4875 36.3916 13.5453 36.2979 16.72C36.2118 19.6414 36.6439 24.1019 39.1916 28.7611C39.4589 29.2498 39.6941 29.7571 39.8978 30.2815L38.2915 30.6655C32.7666 31.9862 26.7673 32.0561 20.9504 30.6655L19.3441 30.2815C19.5478 29.7572 19.783 29.2499 20.0502 28.7611C22.5979 24.1019 23.03 19.6414 22.9439 16.72C22.8503 13.5453 22.1565 11.4875 22.127 11.4015C22.0208 11.0915 21.6836 10.9265 21.3736 11.0324C21.0635 11.1383 20.8979 11.4757 21.0035 11.7859C21.0102 11.8056 21.6759 13.7936 21.7583 16.8012C21.8341 19.5645 21.4185 23.7836 19.0083 28.1914C16.7121 32.3906 16.8158 37.2957 18.0713 41.8952C19.1404 45.8117 20.7858 48.594 20.8554 48.7105C20.9625 48.8901 21.1562 49 21.3652 49H37.8767C38.0858 49 38.2795 48.8901 38.3866 48.7105C38.4561 48.594 40.1015 45.8116 41.1707 41.8952C42.4222 37.3102 42.5334 32.3972 40.2336 28.1914ZM38.5677 31.8205L40.2798 31.4113C40.4646 32.0493 40.605 32.7103 40.7025 33.3917L39.507 33.5835C39.1833 33.6355 38.9629 33.9401 39.0148 34.2639C39.0668 34.5876 39.3706 34.8077 39.6952 34.7561L40.826 34.5746C40.8615 35.1032 40.8752 35.5887 40.8557 36.2163C37.3331 36.9745 31.7959 38.5134 29.621 41.4101C27.4477 38.5156 21.9171 36.9763 18.3863 36.2163C18.367 35.5942 18.3804 35.1042 18.416 34.5747C22.8144 35.1997 27.3523 36.4523 34.4301 35.5755C34.7555 35.5352 34.9866 35.2387 34.9463 34.9133C34.906 34.5879 34.6108 34.3572 34.2841 34.397C26.9064 35.3109 22.0821 33.8116 18.5395 33.3918C18.6369 32.7104 18.7773 32.0494 18.9621 31.4113C21.0288 31.9053 22.5662 32.3092 25.1162 32.6076C29.6154 33.134 34.1931 32.8663 38.5677 31.8205ZM18.4558 37.4471C24.2193 38.7251 27.9512 40.5731 29.0273 42.6893V47.8125H21.7121C20.0943 44.8606 18.7753 41.0125 18.4558 37.4471ZM37.53 47.8126H30.2148V42.6894C31.291 40.5732 35.0228 38.7252 40.7863 37.4472C40.467 41.0095 39.1481 44.8599 37.53 47.8126Z" fill="white"/>
<path d="M29.5052 28.46C29.8499 28.5338 30.2148 28.2689 30.2148 27.8782C30.2148 27.5965 30.0158 27.3513 29.7369 27.2962C29.4221 27.232 29.103 27.4362 29.0393 27.7623C28.9726 28.0696 29.1751 28.3949 29.5052 28.46Z" fill="white"/>
<path d="M17.6257 21.3292C17.4437 21.6019 17.5172 21.9706 17.79 22.1526C18.0616 22.334 18.4307 22.2622 18.6135 21.9883L19.744 20.2944C19.8804 20.09 19.8768 19.8228 19.735 19.6222L18.6045 18.0222C18.4153 17.7544 18.0447 17.6906 17.777 17.8799C17.5093 18.0692 17.4455 18.4397 17.6348 18.7075L18.0908 19.3527H15.5938C15.2659 19.3527 15 19.6186 15 19.9465C15 20.2744 15.2659 20.5402 15.5938 20.5402H18.1521L17.6257 21.3292Z" fill="white"/>
<path d="M43.6483 19.4833H41.0899L41.6164 18.6945C41.7983 18.4217 41.7249 18.0531 41.452 17.871C41.1791 17.6888 40.8106 17.7626 40.6286 18.0353L39.4981 19.7293C39.3617 19.9336 39.3653 20.2009 39.5071 20.4015L40.6376 22.0014C40.827 22.2697 41.1978 22.3327 41.465 22.1437C41.7328 21.9544 41.7966 21.5839 41.6073 21.3162L41.1513 20.6709H43.6482C43.9761 20.6709 44.242 20.4051 44.242 20.0772C44.242 19.7493 43.9762 19.4833 43.6483 19.4833Z" fill="white"/>
<path d="M37.0129 33.9917C36.676 33.9917 36.4182 34.2639 36.4182 34.5854C36.4182 34.9133 36.685 35.1792 37.0129 35.1792C37.3408 35.1792 37.6067 34.9133 37.6067 34.5854C37.6067 34.2576 37.3408 33.9917 37.0129 33.9917Z" fill="white"/>
</svg>
