<svg width="60" height="60" viewBox="0 0 60 60" fill="none" xmlns="http://www.w3.org/2000/svg">
<circle cx="30" cy="30" r="30" fill="#73732E"/>
<path d="M46.7658 17.7151H44.7767C44.4302 17.7151 44.1494 17.9958 44.1494 18.3423C44.1494 18.6888 44.4302 18.9696 44.7767 18.9696H46.7658C47.1123 18.9696 47.393 18.6888 47.393 18.3423C47.393 17.9958 47.1122 17.7151 46.7658 17.7151Z" fill="white"/>
<path d="M35.6048 20.741C32.0975 20.741 29.244 23.5956 29.244 27.1043C29.244 30.6118 32.0974 33.4653 35.6048 33.4653C39.1135 33.4653 41.9681 30.6118 41.9681 27.1043C41.9681 23.5956 39.1135 20.741 35.6048 20.741ZM35.6048 32.2109C32.7892 32.2109 30.4985 29.9201 30.4985 27.1044C30.4985 24.2874 32.7892 21.9955 35.6048 21.9955C38.4217 21.9955 40.7136 24.2873 40.7136 27.1044C40.7136 29.92 38.4218 32.2109 35.6048 32.2109Z" fill="white"/>
<path d="M49.471 14.366H41.8508L41.1132 12.3274C40.9942 11.9991 40.6323 11 39.6097 11H29.852C28.8293 11 28.4674 11.9991 28.3484 12.3277L27.6108 14.366H21.4063V12.8497C21.4063 12.0239 20.7345 11.3521 19.9087 11.3521H17.1142C16.2898 11.3521 15.619 12.0239 15.619 12.8497V14.3931C14.4927 14.5659 13.6274 15.5422 13.6274 16.7172V29.5471L10.7856 30.0984C9.59089 30.3312 8.80834 31.4919 9.04092 32.6851L11.8572 47.2157C12.0628 48.267 12.9903 49 14.0261 49C14.1639 49 14.3037 48.987 14.444 48.96L20.5706 47.7714C20.9106 47.7055 21.1328 47.3762 21.0668 47.0361C21.0008 46.6961 20.6715 46.4736 20.3316 46.5399L14.2061 47.7283C13.69 47.8279 13.1889 47.4895 13.0886 46.976L10.2722 32.4457C10.1719 31.9308 10.5098 31.4302 11.0249 31.3297L26.3008 28.3665C26.5485 28.3191 26.8015 28.3714 27.0133 28.5145C27.2251 28.6576 27.3679 28.8728 27.4157 29.1216L30.2343 43.6493C30.3347 44.1642 29.9967 44.6648 29.4817 44.7654L23.3527 45.954C23.0126 46.02 22.7904 46.3492 22.8563 46.6892C22.9223 47.0293 23.2515 47.2512 23.5915 47.1857L29.721 45.9968C30.9157 45.7639 31.6982 44.6032 31.4657 43.4099L30.7034 39.4815H37.7047C38.0512 39.4815 38.332 39.2007 38.332 38.8542C38.332 38.5077 38.0512 38.227 37.7047 38.227H30.4601L29.7991 34.8203C31.4591 36.0692 33.4932 36.7617 35.6046 36.7617C39.7904 36.7617 43.3623 34.0857 44.7001 30.3553H50.5653V37.1302C50.5653 37.735 50.0744 38.227 49.471 38.227H40.7766C40.4301 38.227 40.1494 38.5077 40.1494 38.8542C40.1494 39.2007 40.4301 39.4815 40.7766 39.4815H49.471C50.7661 39.4815 51.8198 38.4267 51.8198 37.1302V16.7172C51.8198 15.4207 50.7661 14.366 49.471 14.366ZM29.5279 12.7548C29.6481 12.4228 29.7571 12.2546 29.852 12.2546H39.6097C39.7277 12.2546 39.8511 12.5266 39.9336 12.7545L40.5168 14.366H28.9448L29.5279 12.7548ZM25.9481 27.1045C25.9481 27.122 25.9489 27.1395 25.949 27.157L21.4063 28.0382V25.1084H26.1559C26.02 25.7527 25.9481 26.4203 25.9481 27.1045ZM16.8734 12.8497C16.8734 12.7179 16.9836 12.6066 17.1141 12.6066H19.9086C20.0427 12.6066 20.1517 12.7156 20.1517 12.8497V14.366H16.8734V12.8497ZM14.8819 16.7172C14.8819 16.1125 15.3728 15.6205 15.9761 15.6205H16.2462H20.1517V28.2815L18.0283 28.6934V21.6191C18.0283 21.0166 17.5382 20.5266 16.9357 20.5266H14.8819V16.7172ZM14.8819 21.781H16.7738V28.9368L14.8819 29.3038V21.781ZM35.6048 35.507C33.2431 35.507 30.9921 34.5116 29.4017 32.771L28.6475 28.8838C28.5366 28.3064 28.2057 27.8062 27.7158 27.4751C27.5547 27.3663 27.3829 27.2806 27.2044 27.2181C27.2039 27.1802 27.2024 27.1424 27.2024 27.1045C27.2024 22.47 30.9717 18.6996 35.6047 18.6996C40.2391 18.6996 44.0094 22.4701 44.0094 27.1045C44.0095 31.7376 40.2392 35.507 35.6048 35.507ZM50.5653 29.1006H45.0559C45.1919 28.4563 45.2639 27.7887 45.2639 27.1045C45.2639 26.4203 45.1919 25.7527 45.056 25.1084H50.5653V29.1006ZM50.5653 23.8539H44.7006C43.363 20.1221 39.7909 17.4451 35.6048 17.4451C31.4198 17.4451 27.8485 20.1222 26.5112 23.8539H21.4062V15.6205H28.0508H41.4106H49.4709C50.0743 15.6205 50.5652 16.1125 50.5652 16.7172V23.8539H50.5653Z" fill="white"/>
<path d="M28.0015 42.7607C28.1487 42.5409 28.2022 42.2834 28.1525 42.0374L26.0207 31.3251C25.9074 30.7649 25.3226 30.4226 24.6885 30.5443L13.053 32.8011C12.4164 32.9241 12.0022 33.4623 12.111 34.032L14.2437 44.7367C14.291 44.9844 14.4374 45.2024 14.656 45.3506C14.8472 45.4802 15.0824 45.5484 15.326 45.5484C15.4092 45.5484 15.4934 45.5404 15.5772 45.5242L27.2103 43.2675C27.5401 43.2038 27.8285 43.0191 28.0015 42.7607ZM14.582 39.9826L13.3868 34.0141L24.8349 31.7937L25.5295 35.284L24.0617 35.5691C21.2622 36.112 20.3328 36.9504 19.434 37.761C18.5634 38.5463 17.6642 39.3567 14.582 39.9826ZM15.4319 44.2746L15.1397 42.7672L14.8283 41.2124C18.2517 40.5156 19.3236 39.5501 20.2742 38.6926C21.1162 37.9332 21.8434 37.2771 24.3007 36.8007L25.7743 36.5144L26.8767 42.0544L15.4319 44.2746Z" fill="white"/>
</svg>
