<svg width="116" height="15" viewBox="0 0 116 15" fill="none" xmlns="http://www.w3.org/2000/svg">
<path fill-rule="evenodd" clip-rule="evenodd" d="M8.50515 0L15.5052 8L22.5052 0L29.5052 8L36.5052 0L43.5052 8L50.5052 0L57.5052 8L64.5051 0L71.5051 8L78.5051 0L85.5051 8L92.5051 0L99.5051 8L106.505 0L115.01 9.72017L112 12.3542L106.505 6.07436L99.5051 14.0744L92.5051 6.07436L85.5051 14.0744L78.5051 6.07436L71.5051 14.0744L64.5051 6.07437L57.5052 14.0744L50.5052 6.07437L43.5052 14.0744L36.5052 6.07437L29.5052 14.0744L22.5052 6.07437L15.5052 14.0744L8.50515 6.07437L3.01031 12.3542L0 9.72017L8.50515 0Z" fill="#F2E4D6"/>
</svg>
