<svg width="122" height="35" viewBox="0 0 122 35" fill="none" xmlns="http://www.w3.org/2000/svg">
<path d="M25.9453 17.3984C25.9453 16.6224 26.0885 15.8828 26.375 15.1797C26.6667 14.4714 27.0625 13.8542 27.5625 13.3281C28.0625 12.8021 28.6745 12.3854 29.3984 12.0781C30.1224 11.7656 30.8958 11.6094 31.7188 11.6094C32.6562 11.6094 33.4557 11.7344 34.1172 11.9844C34.7839 12.2292 35.4193 12.6094 36.0234 13.125L34.7734 14.6172C34.2943 14.2109 33.8177 13.9089 33.3438 13.7109C32.875 13.513 32.3073 13.4141 31.6406 13.4141C30.9688 13.4141 30.3516 13.5938 29.7891 13.9531C29.2318 14.3125 28.7943 14.7969 28.4766 15.4062C28.1641 16.0156 28.0078 16.6797 28.0078 17.3984C28.0078 18.1641 28.1641 18.849 28.4766 19.4531C28.7891 20.0573 29.2344 20.5339 29.8125 20.8828C30.3958 21.2266 31.0625 21.3984 31.8125 21.3984C32.8698 21.3984 33.7734 21.1172 34.5234 20.5547V18.4531H31.6562V16.7422H36.4219V21.4453C35.0625 22.612 33.5052 23.1953 31.75 23.1953C30.6042 23.1953 29.5859 22.9427 28.6953 22.4375C27.8099 21.9271 27.1302 21.2344 26.6562 20.3594C26.1823 19.4792 25.9453 18.4922 25.9453 17.3984ZM38.7656 23V14.5547H40.6953V16.4531C40.9766 15.7865 41.3672 15.2682 41.8672 14.8984C42.3307 14.5599 42.8828 14.3906 43.5234 14.3906C43.5755 14.3906 43.6302 14.3906 43.6875 14.3906V16.4375H43.5781C42.7031 16.4375 42.0026 16.724 41.4766 17.2969C40.9557 17.8646 40.6953 18.6927 40.6953 19.7812V23H38.7656ZM44.6094 18.7734C44.6094 17.9714 44.7839 17.237 45.1328 16.5703C45.4818 15.8984 45.974 15.3646 46.6094 14.9688C47.2448 14.5729 47.9557 14.375 48.7422 14.375C49.2682 14.375 49.7526 14.4557 50.1953 14.6172C50.638 14.7734 51.0156 14.9922 51.3281 15.2734C51.6458 15.5547 51.9141 15.888 52.1328 16.2734C52.3568 16.6536 52.5208 17.0677 52.625 17.5156C52.7344 17.9635 52.7891 18.4323 52.7891 18.9219C52.7891 19.1562 52.7786 19.3359 52.7578 19.4609H46.5469C46.651 20.138 46.9219 20.6667 47.3594 21.0469C47.8021 21.4219 48.3411 21.6094 48.9766 21.6094C49.4349 21.6094 49.8438 21.5286 50.2031 21.3672C50.5625 21.2005 50.9167 20.9453 51.2656 20.6016L52.4062 21.6094C51.5312 22.6667 50.3776 23.1953 48.9453 23.1953C48.1328 23.1953 47.3984 23.013 46.7422 22.6484C46.0859 22.2839 45.5651 21.763 45.1797 21.0859C44.7995 20.4089 44.6094 19.638 44.6094 18.7734ZM46.5312 18.1875H50.8672C50.7995 17.5312 50.5781 16.9974 50.2031 16.5859C49.8333 16.1693 49.3411 15.9609 48.7266 15.9609C48.1432 15.9609 47.6536 16.1667 47.2578 16.5781C46.8672 16.9844 46.625 17.5208 46.5312 18.1875ZM54.2656 18.7734C54.2656 17.9714 54.4401 17.237 54.7891 16.5703C55.138 15.8984 55.6302 15.3646 56.2656 14.9688C56.901 14.5729 57.612 14.375 58.3984 14.375C58.9245 14.375 59.4089 14.4557 59.8516 14.6172C60.2943 14.7734 60.6719 14.9922 60.9844 15.2734C61.3021 15.5547 61.5703 15.888 61.7891 16.2734C62.013 16.6536 62.1771 17.0677 62.2812 17.5156C62.3906 17.9635 62.4453 18.4323 62.4453 18.9219C62.4453 19.1562 62.4349 19.3359 62.4141 19.4609H56.2031C56.3073 20.138 56.5781 20.6667 57.0156 21.0469C57.4583 21.4219 57.9974 21.6094 58.6328 21.6094C59.0911 21.6094 59.5 21.5286 59.8594 21.3672C60.2188 21.2005 60.5729 20.9453 60.9219 20.6016L62.0625 21.6094C61.1875 22.6667 60.0339 23.1953 58.6016 23.1953C57.7891 23.1953 57.0547 23.013 56.3984 22.6484C55.7422 22.2839 55.2214 21.763 54.8359 21.0859C54.4557 20.4089 54.2656 19.638 54.2656 18.7734ZM56.1875 18.1875H60.5234C60.4557 17.5312 60.2344 16.9974 59.8594 16.5859C59.4896 16.1693 58.9974 15.9609 58.3828 15.9609C57.7995 15.9609 57.3099 16.1667 56.9141 16.5781C56.5234 16.9844 56.2812 17.5208 56.1875 18.1875ZM64.3906 23V14.5547H66.3203V15.8672C67.0026 14.8724 67.8828 14.375 68.9609 14.375C69.9036 14.375 70.6406 14.6693 71.1719 15.2578C71.7031 15.8411 71.9688 16.6302 71.9688 17.625V23H70.0391V18.2031C70.0391 17.5469 69.8802 17.0391 69.5625 16.6797C69.2448 16.3151 68.7995 16.1328 68.2266 16.1328C67.6589 16.1328 67.1979 16.3229 66.8438 16.7031C66.4948 17.0781 66.3203 17.5885 66.3203 18.2344V23H64.3906ZM73.7812 21.3672L74.9688 19.9609C75.526 20.4453 76.0859 20.8099 76.6484 21.0547C77.2109 21.2943 77.8281 21.4141 78.5 21.4141C79.1094 21.4141 79.5911 21.2865 79.9453 21.0312C80.3047 20.7708 80.4844 20.4193 80.4844 19.9766C80.4844 19.6953 80.4193 19.4635 80.2891 19.2812C80.1589 19.0938 79.9089 18.9167 79.5391 18.75C79.1745 18.5781 78.6484 18.4115 77.9609 18.25C77.3151 18.099 76.7812 17.9427 76.3594 17.7812C75.9375 17.6146 75.5547 17.4036 75.2109 17.1484C74.8724 16.8932 74.6224 16.5833 74.4609 16.2188C74.3047 15.849 74.2266 15.4062 74.2266 14.8906C74.2266 13.9323 74.5833 13.151 75.2969 12.5469C76.0156 11.9427 76.9349 11.6406 78.0547 11.6406C79.6016 11.6406 80.9557 12.1094 82.1172 13.0469L81.0625 14.5391C80.026 13.7682 79.013 13.3828 78.0234 13.3828C77.4609 13.3828 77.0156 13.5104 76.6875 13.7656C76.3594 14.0208 76.1953 14.3464 76.1953 14.7422C76.1953 15.0391 76.2682 15.2839 76.4141 15.4766C76.5651 15.6693 76.8281 15.8464 77.2031 16.0078C77.5781 16.1693 78.1276 16.3359 78.8516 16.5078C80.0964 16.8099 81.0078 17.2109 81.5859 17.7109C82.1641 18.2057 82.4531 18.9062 82.4531 19.8125C82.4531 20.8438 82.0833 21.6589 81.3438 22.2578C80.6094 22.8568 79.6458 23.1562 78.4531 23.1562C76.6719 23.1562 75.1146 22.5599 73.7812 21.3672ZM84.5469 25.5625V14.5547H86.4766V15.9609C87.2266 14.9036 88.1823 14.375 89.3438 14.375C89.849 14.375 90.3359 14.474 90.8047 14.6719C91.2734 14.8698 91.6927 15.151 92.0625 15.5156C92.4323 15.8802 92.7266 16.3464 92.9453 16.9141C93.1693 17.4818 93.2812 18.1068 93.2812 18.7891C93.2812 19.4661 93.1693 20.0859 92.9453 20.6484C92.7266 21.2109 92.4323 21.6745 92.0625 22.0391C91.6979 22.4036 91.2812 22.6849 90.8125 22.8828C90.3438 23.0807 89.8542 23.1797 89.3438 23.1797C88.1875 23.1797 87.2318 22.6823 86.4766 21.6875V25.5625H84.5469ZM86.4297 18.7891C86.4297 19.5807 86.6719 20.2292 87.1562 20.7344C87.6406 21.2396 88.2214 21.4922 88.8984 21.4922C89.5807 21.4922 90.1536 21.2448 90.6172 20.75C91.0807 20.25 91.3125 19.5859 91.3125 18.7578C91.3125 17.9609 91.0781 17.3125 90.6094 16.8125C90.1406 16.3073 89.5703 16.0547 88.8984 16.0547C88.2214 16.0547 87.6406 16.3099 87.1562 16.8203C86.6719 17.3307 86.4297 17.987 86.4297 18.7891ZM94.6875 20.5391C94.6875 19.6328 95 18.9453 95.625 18.4766C96.2552 18.0026 97.0833 17.7656 98.1094 17.7656C98.9375 17.7656 99.7161 17.8828 100.445 18.1172V17.9609C100.445 17.3724 100.266 16.9245 99.9062 16.6172C99.5521 16.3047 99.0391 16.1484 98.3672 16.1484C97.6068 16.1484 96.8021 16.3255 95.9531 16.6797L95.4219 15.125C95.9427 14.8906 96.4479 14.7161 96.9375 14.6016C97.4323 14.4818 98 14.4219 98.6406 14.4219C99.8698 14.4219 100.794 14.7318 101.414 15.3516C102.039 15.9661 102.352 16.8464 102.352 17.9922V23H100.43V21.9609C99.7474 22.7734 98.8359 23.1797 97.6953 23.1797C97.1484 23.1797 96.651 23.0833 96.2031 22.8906C95.7552 22.6927 95.3906 22.3906 95.1094 21.9844C94.8281 21.5781 94.6875 21.0964 94.6875 20.5391ZM96.6094 20.4688C96.6094 20.8542 96.763 21.1589 97.0703 21.3828C97.3776 21.6068 97.7682 21.7188 98.2422 21.7188C98.888 21.7188 99.4219 21.5547 99.8438 21.2266C100.266 20.8932 100.477 20.4661 100.477 19.9453V19.4609C99.9141 19.237 99.2682 19.125 98.5391 19.125C97.9297 19.125 97.4557 19.2422 97.1172 19.4766C96.7786 19.7109 96.6094 20.0417 96.6094 20.4688ZM104.188 18.7891C104.188 17.9974 104.375 17.2656 104.75 16.5938C105.125 15.9167 105.648 15.3776 106.32 14.9766C106.997 14.5755 107.747 14.375 108.57 14.375C109.326 14.375 109.971 14.5 110.508 14.75C111.049 15 111.531 15.3594 111.953 15.8281L110.75 17.125C110.422 16.7812 110.089 16.5208 109.75 16.3438C109.411 16.1615 109.013 16.0703 108.555 16.0703C107.857 16.0703 107.276 16.3333 106.812 16.8594C106.354 17.3854 106.125 18.0286 106.125 18.7891C106.125 19.5547 106.362 20.2005 106.836 20.7266C107.315 21.2526 107.922 21.5156 108.656 21.5156C109.083 21.5156 109.471 21.4245 109.82 21.2422C110.169 21.0599 110.51 20.7969 110.844 20.4531L112.016 21.6094C111.557 22.125 111.057 22.5182 110.516 22.7891C109.979 23.0599 109.326 23.1953 108.555 23.1953C107.732 23.1953 106.984 22.9974 106.312 22.6016C105.646 22.2057 105.125 21.6719 104.75 21C104.375 20.3281 104.188 19.5911 104.188 18.7891ZM113.078 18.7734C113.078 17.9714 113.253 17.237 113.602 16.5703C113.951 15.8984 114.443 15.3646 115.078 14.9688C115.714 14.5729 116.424 14.375 117.211 14.375C117.737 14.375 118.221 14.4557 118.664 14.6172C119.107 14.7734 119.484 14.9922 119.797 15.2734C120.115 15.5547 120.383 15.888 120.602 16.2734C120.826 16.6536 120.99 17.0677 121.094 17.5156C121.203 17.9635 121.258 18.4323 121.258 18.9219C121.258 19.1562 121.247 19.3359 121.227 19.4609H115.016C115.12 20.138 115.391 20.6667 115.828 21.0469C116.271 21.4219 116.81 21.6094 117.445 21.6094C117.904 21.6094 118.312 21.5286 118.672 21.3672C119.031 21.2005 119.385 20.9453 119.734 20.6016L120.875 21.6094C120 22.6667 118.846 23.1953 117.414 23.1953C116.602 23.1953 115.867 23.013 115.211 22.6484C114.555 22.2839 114.034 21.763 113.648 21.0859C113.268 20.4089 113.078 19.638 113.078 18.7734ZM115 18.1875H119.336C119.268 17.5312 119.047 16.9974 118.672 16.5859C118.302 16.1693 117.81 15.9609 117.195 15.9609C116.612 15.9609 116.122 16.1667 115.727 16.5781C115.336 16.9844 115.094 17.5208 115 18.1875Z" fill="#5D482A"/>
<path d="M0 16.8832C1.05437 16.3079 2.05919 15.6059 3.17412 15.1902C4.49553 14.6974 5.92155 15.3168 6.70613 16.5749C6.87956 16.8529 6.87406 17.4256 6.70062 17.7036C5.90503 18.9617 4.48727 19.5646 3.16311 19.0746C2.0702 18.6699 1.07639 17.9871 0.0412938 17.4283C0.0275292 17.2439 0.0137646 17.0649 0 16.8832Z" fill="#BDBD4E"/>
<path d="M10.1144 27.2368C8.9086 25.8686 7.98086 24.7344 7.92855 23.1432C7.88726 21.8355 8.56173 20.9271 9.6161 20.2884C9.82807 20.159 10.274 20.2196 10.508 20.3627C11.8983 21.2161 12.4736 22.766 11.8377 24.2801C11.4248 25.2629 10.7641 26.1439 10.1144 27.2368Z" fill="#BDBD4E"/>
<path d="M20.0003 17.1389C18.7312 18.24 17.5777 19.1953 15.9425 19.1925C14.6981 19.1925 12.917 17.9289 12.9638 17.0948C13.0133 16.2634 14.7257 15.0714 15.9149 15.0714C17.5805 15.0714 18.7615 16.0212 20.0003 17.1389Z" fill="#BDBD4E"/>
<path d="M10.1306 7C10.8078 8.19477 11.4492 9.18307 11.9282 10.2429C12.1347 10.7027 12.0851 11.3221 12.0108 11.8507C11.8787 12.8032 10.5352 14.2374 9.93236 14.1769C9.19457 14.1026 8.01081 12.5361 7.93648 11.5203C7.80985 9.75017 8.82293 8.51136 10.1306 7Z" fill="#BDBD4E"/>
<path d="M11.064 18.2209C13.9958 18.3999 16.8341 21.2409 16.936 24.0214C14.2353 24.0379 11.3888 21.2629 11.064 18.2209Z" fill="#BDBD4E"/>
<path d="M3.06665 24.0296C3.14098 21.2739 5.99026 18.4054 8.84229 18.2209C8.90836 21.2684 5.39838 24.1122 3.06665 24.0296Z" fill="#BDBD4E"/>
<path d="M8.92488 16.0516C5.97649 15.8478 3.13547 12.9903 3.06665 10.2346C5.80581 10.2787 8.67436 13.0894 8.92488 16.0516Z" fill="#BDBD4E"/>
<path d="M16.9523 10.1631C16.7871 13.0784 13.9433 15.9139 11.1464 16.0323C11.039 13.4226 13.7892 10.6146 16.9523 10.1631Z" fill="#BDBD4E"/>
</svg>
