<svg width="114" height="22" viewBox="0 0 114 22" fill="none" xmlns="http://www.w3.org/2000/svg">
<path d="M15.92 15.72C14 17.432 11.752 18.288 9.176 18.288C6.6 18.288 4.528 17.464 2.96 15.816C1.408 14.152 0.632 12.08 0.632 9.6C0.632 7.232 1.424 5.192 3.008 3.48C4.592 1.768 6.608 0.912 9.056 0.912C10.4 0.912 11.552 1.096 12.512 1.464C13.488 1.832 14.424 2.392 15.32 3.144L14.096 4.584C12.624 3.304 10.92 2.664 8.984 2.664C7.144 2.664 5.616 3.344 4.4 4.704C3.2 6.048 2.6 7.68 2.6 9.6C2.6 11.632 3.2 13.304 4.4 14.616C5.616 15.928 7.232 16.584 9.248 16.584C11.104 16.584 12.72 16.024 14.096 14.904V10.728H8.984V9.024H15.92V15.72ZM19.8843 18V5.592H21.7323V8.832C22.2123 7.76 22.8923 6.904 23.7723 6.264C24.6523 5.624 25.6603 5.328 26.7963 5.376V7.368H26.6523C25.2283 7.368 24.0523 7.864 23.1243 8.856C22.1963 9.848 21.7323 11.248 21.7323 13.056V18H19.8843ZM30.1758 12.552C30.3038 13.816 30.7758 14.824 31.5918 15.576C32.4238 16.312 33.4078 16.68 34.5438 16.68C36.0318 16.68 37.3358 16.096 38.4558 14.928L39.6078 15.96C38.2158 17.512 36.5118 18.288 34.4958 18.288C32.7518 18.288 31.2798 17.688 30.0798 16.488C28.8958 15.272 28.3038 13.712 28.3038 11.808C28.3038 10 28.8718 8.472 30.0078 7.224C31.1438 5.96 32.5598 5.328 34.2558 5.328C36.0318 5.328 37.4398 5.952 38.4798 7.2C39.5198 8.448 40.0398 10.016 40.0398 11.904C40.0398 12.144 40.0318 12.36 40.0158 12.552H30.1758ZM30.1758 11.064H38.1678C38.0558 9.864 37.6558 8.872 36.9678 8.088C36.2958 7.288 35.3758 6.888 34.2078 6.888C33.1518 6.888 32.2478 7.28 31.4958 8.064C30.7438 8.848 30.3038 9.848 30.1758 11.064ZM44.3789 12.552C44.5069 13.816 44.9789 14.824 45.7949 15.576C46.6269 16.312 47.6109 16.68 48.7469 16.68C50.2349 16.68 51.5389 16.096 52.6589 14.928L53.8109 15.96C52.4189 17.512 50.7149 18.288 48.6989 18.288C46.9549 18.288 45.4829 17.688 44.2829 16.488C43.0989 15.272 42.5069 13.712 42.5069 11.808C42.5069 10 43.0749 8.472 44.2109 7.224C45.3469 5.96 46.7629 5.328 48.4589 5.328C50.2349 5.328 51.6429 5.952 52.6829 7.2C53.7229 8.448 54.2429 10.016 54.2429 11.904C54.2429 12.144 54.2349 12.36 54.2189 12.552H44.3789ZM44.3789 11.064H52.3709C52.2589 9.864 51.8589 8.872 51.1709 8.088C50.4989 7.288 49.5789 6.888 48.4109 6.888C47.3549 6.888 46.4509 7.28 45.6989 8.064C44.9469 8.848 44.5069 9.848 44.3789 11.064ZM57.4781 18V5.592H59.3261V7.752C60.3021 6.136 61.7181 5.328 63.5741 5.328C65.0461 5.328 66.2061 5.784 67.0541 6.696C67.9021 7.592 68.3261 8.792 68.3261 10.296V18H66.4781V10.752C66.4781 9.584 66.1741 8.672 65.5661 8.016C64.9741 7.344 64.1341 7.008 63.0461 7.008C61.9741 7.008 61.0861 7.368 60.3821 8.088C59.6781 8.808 59.3261 9.744 59.3261 10.896V18H57.4781ZM78.3391 18.24C75.7631 18.24 73.4751 17.344 71.4751 15.552L72.6511 14.16C73.5471 14.976 74.4431 15.576 75.3391 15.96C76.2511 16.344 77.2751 16.536 78.4111 16.536C79.5311 16.536 80.4351 16.272 81.1231 15.744C81.8111 15.2 82.1551 14.496 82.1551 13.632C82.1551 12.816 81.8511 12.168 81.2431 11.688C80.6351 11.208 79.4831 10.792 77.7871 10.44C75.7871 10.008 74.3471 9.424 73.4671 8.688C72.5871 7.952 72.1471 6.904 72.1471 5.544C72.1471 4.216 72.6671 3.12 73.7071 2.256C74.7471 1.392 76.0671 0.959999 77.6671 0.959999C79.8911 0.959999 81.8591 1.648 83.5711 3.024L82.4671 4.488C80.9791 3.272 79.3631 2.664 77.6191 2.664C76.5471 2.664 75.6831 2.928 75.0271 3.456C74.3711 3.968 74.0431 4.624 74.0431 5.424C74.0431 6.256 74.3551 6.912 74.9791 7.392C75.6191 7.872 76.8271 8.304 78.6031 8.688C80.5071 9.104 81.8911 9.688 82.7551 10.44C83.6351 11.176 84.0751 12.192 84.0751 13.488C84.0751 14.912 83.5391 16.064 82.4671 16.944C81.3951 17.808 80.0191 18.24 78.3391 18.24ZM87.6187 21.84V5.592H89.4667V8.088C90.7147 6.248 92.2987 5.328 94.2187 5.328C95.8027 5.328 97.1867 5.92 98.3707 7.104C99.5547 8.272 100.147 9.84 100.147 11.808C100.147 13.744 99.5547 15.304 98.3707 16.488C97.1867 17.672 95.8027 18.264 94.2187 18.264C92.2667 18.264 90.6827 17.384 89.4667 15.624V21.84H87.6187ZM93.8827 16.608C95.1307 16.608 96.1707 16.176 97.0027 15.312C97.8347 14.432 98.2507 13.256 98.2507 11.784C98.2507 10.36 97.8267 9.208 96.9787 8.328C96.1307 7.432 95.0987 6.984 93.8827 6.984C92.6827 6.984 91.6347 7.44 90.7387 8.352C89.8427 9.264 89.3947 10.416 89.3947 11.808C89.3947 13.2 89.8427 14.352 90.7387 15.264C91.6347 16.16 92.6827 16.608 93.8827 16.608ZM107.252 18.264C105.988 18.264 104.9 17.92 103.988 17.232C103.076 16.544 102.62 15.584 102.62 14.352C102.62 13.056 103.1 12.056 104.06 11.352C105.02 10.648 106.308 10.296 107.924 10.296C109.204 10.296 110.468 10.472 111.716 10.824V10.44C111.716 9.352 111.396 8.52 110.756 7.944C110.116 7.368 109.212 7.08 108.044 7.08C106.828 7.08 105.572 7.376 104.276 7.968L103.724 6.456C105.26 5.752 106.764 5.4 108.236 5.4C109.996 5.4 111.332 5.856 112.244 6.768C113.108 7.632 113.54 8.848 113.54 10.416V18H111.716V16.152C110.612 17.56 109.124 18.264 107.252 18.264ZM107.612 16.776C108.764 16.776 109.74 16.464 110.54 15.84C111.34 15.216 111.74 14.416 111.74 13.44V12.288C110.524 11.936 109.316 11.76 108.116 11.76C106.98 11.76 106.092 11.992 105.452 12.456C104.812 12.904 104.492 13.52 104.492 14.304C104.492 15.056 104.788 15.656 105.38 16.104C105.988 16.552 106.732 16.776 107.612 16.776Z" fill="#5D482A"/>
</svg>
