<svg width="24" height="24" viewBox="0 0 24 24" fill="none" xmlns="http://www.w3.org/2000/svg">
<mask id="mask0" mask-type="alpha" maskUnits="userSpaceOnUse" x="0" y="0" width="24" height="24">
<rect width="24" height="24" fill="white"/>
</mask>
<g mask="url(#mask0)">
<path d="M23.9837 2.26396C24.1007 1.71933 23.5668 1.2601 23.0459 1.45884L0.452341 10.0838C0.180422 10.1876 0.000563818 10.4482 1.32316e-06 10.7393C-0.000561172 11.0304 0.178265 11.2917 0.44981 11.3965L6.79677 13.8478V21.5687C6.79677 21.8944 7.02041 22.1774 7.33728 22.2527C7.65204 22.3276 7.98026 22.1778 8.12782 21.8851L10.7528 16.676L17.1589 21.4302C17.5486 21.7194 18.1087 21.5355 18.2505 21.0707C24.2316 1.46039 23.9731 2.31323 23.9837 2.26396ZM18.4065 4.7351L7.40023 12.5734L2.66459 10.7445L18.4065 4.7351ZM8.20301 13.7281L17.7967 6.89578C9.54146 15.6046 9.97262 15.1462 9.93662 15.1947C9.88313 15.2666 10.0297 14.9862 8.20301 18.611V13.7281ZM17.1963 19.7067L11.5574 15.522L21.7532 4.76603L17.1963 19.7067Z" fill="#73732E"/>
</g>
</svg>
