<svg width="9" height="9" viewBox="0 0 9 9" fill="none" xmlns="http://www.w3.org/2000/svg">
<path d="M7.0152 0.606079H1.16396C0.503331 0.606079 0 1.10941 0 1.77004V7.62127C0 8.2819 0.503331 8.78523 1.16396 8.78523H7.0152C7.67582 8.78523 8.17915 8.2819 8.17915 7.62127V1.77004C8.17915 1.10941 7.67582 0.606079 7.0152 0.606079ZM4.08958 7.1494C5.44228 7.1494 6.54332 6.07982 6.54332 4.79003C6.54332 4.56982 6.51186 4.31816 6.44895 4.12941H7.14103V7.46398C7.14103 7.62127 7.01519 7.77857 6.82645 7.77857H1.35271C1.19542 7.77857 1.03812 7.65273 1.03812 7.46398V4.09795H1.76167C1.69875 4.31816 1.66729 4.53836 1.66729 4.75857C1.63583 6.07982 2.73687 7.1494 4.08958 7.1494ZM4.08958 6.20565C3.20874 6.20565 2.51666 5.51357 2.51666 4.6642C2.51666 3.81482 3.20874 3.12274 4.08958 3.12274C4.97041 3.12274 5.66249 3.81482 5.66249 4.6642C5.66249 5.54503 4.97041 6.20565 4.08958 6.20565ZM7.10957 2.83962C7.10957 3.02837 6.95228 3.18566 6.76353 3.18566H5.8827C5.69395 3.18566 5.53666 3.02837 5.53666 2.83962V1.99024C5.53666 1.80149 5.69395 1.6442 5.8827 1.6442H6.76353C6.95228 1.6442 7.10957 1.80149 7.10957 1.99024V2.83962Z" fill="#73732E"/>
</svg>
