<svg width="10" height="10" viewBox="0 0 10 10" fill="none" xmlns="http://www.w3.org/2000/svg">
<path d="M8.57692 0H1.42308C0.615384 0 0 0.615385 0 1.42308V8.57692C0 9.38461 0.615384 10 1.42308 10H8.57692C9.38462 10 10 9.38461 10 8.57692V1.42308C10 0.615385 9.38462 0 8.57692 0ZM5 8C6.65385 8 8 6.69231 8 5.11538C8 4.84615 7.96154 4.53846 7.88462 4.30769H8.73077V8.38461C8.73077 8.57692 8.57692 8.76923 8.34615 8.76923H1.65385C1.46154 8.76923 1.26923 8.61538 1.26923 8.38461V4.26923H2.15385C2.07693 4.53846 2.03846 4.80769 2.03846 5.07692C2 6.69231 3.34615 8 5 8ZM5 6.84615C3.92308 6.84615 3.07692 6 3.07692 4.96154C3.07692 3.92308 3.92308 3.07692 5 3.07692C6.07692 3.07692 6.92308 3.92308 6.92308 4.96154C6.92308 6.03846 6.07692 6.84615 5 6.84615ZM8.69231 2.73077C8.69231 2.96154 8.5 3.15385 8.26923 3.15385H7.19231C6.96154 3.15385 6.76923 2.96154 6.76923 2.73077V1.69231C6.76923 1.46154 6.96154 1.26923 7.19231 1.26923H8.26923C8.5 1.26923 8.69231 1.46154 8.69231 1.69231V2.73077Z" fill="#73732E"/>
</svg>
