<svg width="12" height="12" viewBox="0 0 12 12" fill="none" xmlns="http://www.w3.org/2000/svg">
<mask id="mask0" mask-type="alpha" maskUnits="userSpaceOnUse" x="0" y="0" width="12" height="12">
<rect width="12" height="12" fill="#C4C4C4"/>
</mask>
<g mask="url(#mask0)">
<path d="M8.35611 6.14663C8.16061 5.95113 7.84461 5.95113 7.64911 6.14663L6.85211 6.94362C6.48261 6.83362 5.79311 6.58362 5.35611 6.14663C4.91911 5.70963 4.66911 5.02012 4.55911 4.65062L5.35611 3.85362C5.55161 3.65812 5.55161 3.34212 5.35611 3.14663L3.35611 1.14662C3.16061 0.951125 2.84461 0.951125 2.64911 1.14662L1.29311 2.50263C1.10311 2.69263 0.996108 2.95362 1.00011 3.22012C1.01161 3.93213 1.20011 6.40513 3.14911 8.35413C5.09811 10.3031 7.57111 10.4911 8.28361 10.5031C8.28611 10.5031 8.29511 10.5031 8.29761 10.5031C8.56161 10.5031 8.81111 10.3991 9.00011 10.2101L10.3561 8.85413C10.5516 8.65863 10.5516 8.34263 10.3561 8.14713L8.35611 6.14663ZM8.29261 9.50262C7.66861 9.49212 5.53361 9.32463 3.85611 7.64663C2.17311 5.96362 2.01011 3.82113 2.00011 3.20963L3.00261 2.20713L4.29561 3.50012L3.64911 4.14663C3.52961 4.26562 3.47861 4.43762 3.51311 4.60262C3.52511 4.66012 3.81861 6.02362 4.64861 6.85362C5.47861 7.68362 6.84211 7.97712 6.89961 7.98912C7.06611 8.02462 7.23661 7.97312 7.35561 7.85362L8.00261 7.20712L9.29561 8.50012L8.29261 9.50262Z" fill="#73732E"/>
</g>
</svg>
