<svg width="12" height="10" viewBox="0 0 12 10" fill="none" xmlns="http://www.w3.org/2000/svg">
<path d="M0.201018 4.79992L2.83659 5.78267L3.86401 9.08829C3.90868 9.31165 4.17671 9.35632 4.35539 9.22231L5.82951 8.0162C5.96352 7.88219 6.18688 7.88219 6.36556 8.0162L9.00113 9.93704C9.17981 10.071 9.44783 9.9817 9.49251 9.75835L11.458 0.377533C11.5027 0.15418 11.2793 -0.0691703 11.056 0.0201708L0.201018 4.2192C-0.0670059 4.30855 -0.0670059 4.71058 0.201018 4.79992ZM3.73 5.2913L8.91178 2.11969C9.00112 2.07502 9.09047 2.20903 9.00113 2.2537L4.75742 6.22938C4.62341 6.36339 4.4894 6.54207 4.4894 6.76543L4.35539 7.83752C4.35539 7.97153 4.13203 8.0162 4.08736 7.83752L3.55131 5.87201C3.4173 5.64866 3.50665 5.38064 3.73 5.2913Z" fill="#73732E"/>
</svg>
