<svg width="10" height="9" viewBox="0 0 10 9" fill="none" xmlns="http://www.w3.org/2000/svg">
<path d="M0.177887 4.63507L2.39015 5.45998L3.25256 8.23468C3.29005 8.42216 3.51503 8.45965 3.66501 8.34717L4.90237 7.33478C5.01486 7.22229 5.20235 7.22229 5.35233 7.33478L7.56459 8.9471C7.71457 9.05959 7.93955 8.9846 7.97704 8.79712L9.62686 0.922976C9.66436 0.735496 9.47688 0.548018 9.2894 0.62301L0.177887 4.14763C-0.0470886 4.22262 -0.0470886 4.56008 0.177887 4.63507ZM3.14007 5.04753L7.48959 2.38532C7.56458 2.34782 7.63958 2.46031 7.56459 2.49781L4.00247 5.83494C3.88999 5.94743 3.7775 6.09741 3.7775 6.28489L3.66501 7.18479C3.66501 7.29728 3.47753 7.33478 3.44004 7.18479L2.99008 5.53497C2.87759 5.34749 2.95259 5.12252 3.14007 5.04753Z" fill="#73732E"/>
</svg>
