<svg width="10" height="8" viewBox="0 0 10 8" fill="none" xmlns="http://www.w3.org/2000/svg">
<path d="M9.90102 1.00142C9.56423 1.14576 9.17934 1.24198 8.79444 1.2901C9.17934 1.04953 9.51612 0.664634 9.66046 0.23162C9.27556 0.472183 8.89066 0.616521 8.40954 0.712746C8.07275 0.327845 7.5435 0.0872803 7.01426 0.0872803C5.95579 0.0872803 5.08976 0.953308 5.08976 2.01179C5.08976 2.15612 5.08976 2.30046 5.13787 2.4448C3.55016 2.34857 2.10677 1.57877 1.14452 0.424067C1.00018 0.712743 0.903958 1.04953 0.903958 1.38632C0.903958 2.0599 1.24075 2.63725 1.76999 2.97404C1.4332 2.97404 1.14452 2.87781 0.903958 2.73348C0.903958 3.64762 1.57753 4.46553 2.44356 4.60987C2.29922 4.65798 2.10678 4.65798 1.91433 4.65798C1.76999 4.65798 1.67376 4.65798 1.52942 4.60987C1.76999 5.37967 2.49168 5.95702 3.35771 5.95702C2.68413 6.48626 1.86621 6.77494 0.952074 6.77494C0.807736 6.77494 0.663398 6.77494 0.470947 6.72683C1.33698 7.25607 2.34734 7.59286 3.45393 7.59286C7.01427 7.59286 8.93877 4.65798 8.93877 2.10801V1.86745C9.32367 1.72311 9.66046 1.38632 9.90102 1.00142Z" fill="#73732E"/>
</svg>
