<svg width="13" height="10" viewBox="0 0 13 10" fill="none" xmlns="http://www.w3.org/2000/svg">
<path d="M12.5641 1.21794C12.1154 1.41025 11.6026 1.53846 11.0897 1.60256C11.6026 1.28205 12.0513 0.769232 12.2436 0.19231C11.7308 0.512822 11.2179 0.70513 10.5769 0.833335C10.1282 0.320515 9.42307 0 8.71794 0C7.30768 0 6.15384 1.15385 6.15384 2.5641C6.15384 2.75641 6.15384 2.94871 6.21794 3.14102C4.10256 3.01282 2.17948 1.98718 0.897432 0.448716C0.705124 0.833331 0.576919 1.28205 0.576919 1.73077C0.576919 2.6282 1.02564 3.39743 1.73077 3.84615C1.28205 3.84615 0.897432 3.71795 0.576919 3.52564C0.576919 4.74359 1.47435 5.83333 2.6282 6.02563C2.43589 6.08974 2.17949 6.08974 1.92308 6.08974C1.73077 6.08974 1.60256 6.08974 1.41025 6.02563C1.73077 7.05128 2.69231 7.82051 3.84615 7.82051C2.94872 8.52564 1.85897 8.91025 0.641025 8.91025C0.448718 8.91025 0.25641 8.91025 0 8.84615C1.15385 9.55128 2.5 10 3.97436 10C8.71794 10 11.282 6.08974 11.282 2.6923V2.37179C11.7949 2.17948 12.2436 1.73076 12.5641 1.21794Z" fill="#73732E"/>
</svg>
