<svg width="43" height="43" viewBox="0 0 43 43" fill="none" xmlns="http://www.w3.org/2000/svg">
<mask id="mask0" mask-type="alpha" maskUnits="userSpaceOnUse" x="0" y="0" width="43" height="43">
<rect width="43" height="43" fill="#C4C4C4"/>
</mask>
<g mask="url(#mask0)">
<path fill-rule="evenodd" clip-rule="evenodd" d="M42.2364 36.8967L40.8264 35.0158L36.3385 25.0793C35.6047 23.4543 35.1081 21.7385 34.8605 19.9783C34.7391 19.1148 34.6774 18.2347 34.6774 17.3636V12.5961C34.6774 11.7694 34.0047 11.0967 33.178 11.0967C32.5316 11.0967 31.9594 11.5093 31.7555 12.1224L30.7381 15.1741C30.3351 16.3822 29.7914 17.5307 29.1256 18.6085L27.2114 14.7274C26.9471 14.1996 26.4159 13.8709 25.825 13.8709C24.9698 13.8709 24.2742 14.5665 24.2742 15.4216V18.7888C24.2742 19.9706 23.9274 21.115 23.272 22.0991C23.0196 22.4771 22.8871 22.9168 22.8871 23.3704C22.8871 24.634 23.9142 25.6612 25.1779 25.6612C26.5026 25.6612 27.7093 26.388 28.3287 27.5581L32.6315 35.6844C32.3644 35.5769 32.1002 35.4631 31.8408 35.3397L24.3824 31.8067C22.5993 30.9627 20.6143 30.516 18.6405 30.516C15.8282 30.516 13.133 31.3802 10.845 33.0149L10.6057 33.1855C9.02861 34.3111 6.74892 34.2009 5.28969 32.9226L0 28.2939V30.3511L1.3871 31.3511L4.37698 33.9664C5.41176 34.8722 6.73921 35.3709 8.11313 35.3709C8.91279 35.3709 9.68471 35.1919 10.4032 34.8736V41.6128H1.3871H1H0V42.9999H39.1855C41.2883 42.9999 43 41.2882 43 39.1854C43 38.3649 42.7288 37.5528 42.2364 36.8967ZM32.0537 15.6131C31.4462 17.435 30.5543 19.1377 29.4023 20.6725C29.2261 20.9076 29.129 21.1989 29.129 21.4923C29.129 22.0547 29.4661 22.5527 29.9876 22.7608C31.5273 23.376 32.8666 24.4031 33.8625 25.7305L37.0008 29.9147L35.0748 25.6494C34.287 23.9058 33.7529 22.0624 33.4873 20.1711C33.3569 19.2445 33.2903 18.2999 33.2903 17.3636V12.5961C33.2903 12.5337 33.2404 12.4838 33.178 12.4838C33.1294 12.4838 33.0864 12.515 33.0712 12.5615L32.0537 15.6131ZM23.5806 41.6128H39.1855C40.524 41.6128 41.6129 40.5239 41.6129 39.1854C41.6129 38.6631 41.4402 38.1465 41.1274 37.7289L32.7528 26.5628C31.9102 25.44 30.7755 24.5702 29.4723 24.0494C28.4209 23.6277 27.7419 22.6248 27.7419 21.4923C27.7419 20.9312 27.923 20.3777 28.2441 19.9186L28.1477 19.6995L25.9713 15.3495C25.904 15.2129 25.6613 15.2698 25.6613 15.4223V18.7895C25.6613 20.246 25.2341 21.6573 24.4261 22.869C24.3262 23.0181 24.2742 23.1915 24.2742 23.3704C24.2742 23.8691 24.6792 24.2741 25.1772 24.2741C27.0179 24.2741 28.6949 25.2839 29.5542 26.9096L34.5248 36.2981C35.7087 36.5978 36.9287 36.758 38.1452 36.758V38.1451C35.7753 38.1451 33.3902 37.609 31.2471 36.5936L23.788 33.0607C23.7207 33.0288 23.6486 33.0066 23.5806 32.9761V37.4515H22.1935V32.4573C21.043 32.1015 19.841 31.9031 18.6405 31.9031C16.1756 31.9031 13.812 32.6487 11.7903 34.0511V41.6128H22.1935V38.8386H23.5806V41.6128Z" fill="white"/>
<path d="M18.7258 0.792032V0H17.3387V0.693548H15.9516V0H14.5645V0.792032C13.5942 1.04379 12.8341 1.80392 12.5824 2.77419H0V4.16129H12.5824C12.8341 5.13156 13.5942 5.89169 14.5645 6.14345V6.93548H15.9516V6.24194H17.3387V6.93548H18.7258V6.14345C19.9194 5.83344 20.8065 4.75705 20.8065 3.46774C20.8065 2.17844 19.9194 1.10205 18.7258 0.792032ZM14.5645 4.66134C14.1519 4.42137 13.871 3.97889 13.871 3.46774C13.871 2.9566 14.1519 2.51411 14.5645 2.27345V4.66134ZM17.3387 4.85484H15.9516V2.08065H17.3387V4.85484ZM18.7258 4.66203V2.27345C19.1385 2.51411 19.4194 2.9566 19.4194 3.46774C19.4194 3.97889 19.1385 4.42137 18.7258 4.66203Z" fill="white"/>
<path d="M20.4187 17.3386C19.3292 16.1534 18.7258 14.6296 18.7258 13.0095V8.32251H17.3387V13.0095C17.3387 14.5742 17.7971 16.0681 18.6488 17.3386H14.6415C15.4931 16.0681 15.9516 14.5742 15.9516 13.0095V8.32251H14.5645V13.0095C14.5645 14.6296 13.9611 16.1534 12.8715 17.3386H4.16125V19.4193C4.16125 24.3906 8.20603 28.4354 13.1774 28.4354C18.1487 28.4354 22.1935 24.3906 22.1935 19.4193V17.3386H20.4187ZM13.1774 27.0483C10.0814 27.0483 7.41538 25.191 6.2204 22.5354C6.63584 22.2171 7.7795 21.4999 9.70964 21.4999C10.863 21.4999 12.3777 21.9174 13.9812 22.3578C15.7102 22.8336 17.6307 23.3566 19.5983 23.5223C18.241 25.639 15.8732 27.0483 13.1774 27.0483ZM20.8064 19.4193C20.8064 20.3923 20.6164 21.3196 20.2828 22.1761C18.2521 22.0894 16.1881 21.527 14.3488 21.0214C12.6524 20.5539 11.0503 20.1128 9.70964 20.1128C7.81695 20.1128 6.49851 20.7093 5.75988 21.1719C5.62603 20.608 5.54835 20.0234 5.54835 19.4193V18.7257H20.8064V19.4193Z" fill="white"/>
</g>
</svg>
