<svg width="43" height="43" viewBox="0 0 43 43" fill="none" xmlns="http://www.w3.org/2000/svg">
<mask id="mask0" mask-type="alpha" maskUnits="userSpaceOnUse" x="0" y="0" width="43" height="43">
<rect width="43" height="43" fill="#C4C4C4"/>
</mask>
<g mask="url(#mask0)">
<path d="M34.0639 4.22705L35.7434 5.14562L36.662 6.82525C36.7237 6.93799 36.8145 7.03205 36.9251 7.09758C37.0356 7.16311 37.1618 7.19769 37.2903 7.19769C37.4188 7.19769 37.5449 7.16311 37.6554 7.09758C37.766 7.03205 37.8568 6.93799 37.9185 6.82525L38.8371 5.14562L40.5166 4.22705C40.6294 4.1654 40.7235 4.07455 40.789 3.96402C40.8545 3.85349 40.8891 3.72736 40.8891 3.59886C40.8891 3.47037 40.8546 3.34423 40.789 3.2337C40.7235 3.12317 40.6294 3.03231 40.5167 2.97065L38.8371 2.05199L37.9185 0.372443C37.8568 0.259705 37.766 0.165638 37.6554 0.100108C37.5449 0.0345783 37.4188 0 37.2903 0C37.1618 0 37.0356 0.0345783 36.9251 0.100108C36.8145 0.165638 36.7237 0.259705 36.662 0.372443L35.7434 2.05199L34.0639 2.9707C33.9511 3.03235 33.857 3.12321 33.7915 3.23375C33.726 3.34428 33.6914 3.47041 33.6914 3.59891C33.6914 3.72741 33.726 3.85354 33.7915 3.96407C33.8571 4.07459 33.9512 4.16545 34.0639 4.2271V4.22705ZM36.6147 3.20779C36.7348 3.14206 36.8336 3.04328 36.8993 2.92316L37.2903 2.20825L37.6813 2.92316C37.747 3.04328 37.8458 3.14206 37.9659 3.20779L38.6808 3.59885L37.9659 3.98983C37.8458 4.05551 37.747 4.1543 37.6812 4.27445L37.2903 4.98936L36.8993 4.27443C36.8336 4.15427 36.7348 4.05549 36.6146 3.9898L35.8997 3.59882L36.6147 3.20779Z" fill="white"/>
<path d="M0.372512 17.116L2.05203 18.0345L2.97059 19.7142C3.03226 19.8269 3.12313 19.921 3.23367 19.9865C3.3442 20.052 3.47034 20.0866 3.59884 20.0866C3.72734 20.0866 3.85348 20.052 3.96401 19.9865C4.07455 19.921 4.16542 19.8269 4.22709 19.7142L5.14566 18.0345L6.8252 17.116C6.93795 17.0543 7.03202 16.9635 7.09756 16.8529C7.1631 16.7424 7.19769 16.6163 7.19769 16.4878C7.1977 16.3593 7.16312 16.2331 7.09759 16.1226C7.03206 16.0121 6.93799 15.9212 6.82525 15.8596L5.14568 14.9409L4.22711 13.2614C4.16544 13.1486 4.07458 13.0546 3.96404 12.989C3.8535 12.9235 3.72737 12.8889 3.59887 12.8889C3.47037 12.8889 3.34423 12.9235 3.23369 12.989C3.12316 13.0546 3.03229 13.1486 2.97062 13.2614L2.05203 14.9409L0.372468 15.8596C0.259725 15.9213 0.165652 16.0121 0.100117 16.1227C0.0345815 16.2332 0 16.3593 0 16.4878C0 16.6163 0.0345815 16.7424 0.100117 16.853C0.165652 16.9635 0.259725 17.0544 0.372468 17.116L0.372512 17.116ZM2.92326 16.0967C3.04338 16.031 3.14215 15.9322 3.20788 15.8121L3.59886 15.0972L3.98984 15.8121C4.05557 15.9322 4.15434 16.031 4.27447 16.0967L4.98938 16.4878L4.27451 16.8787C4.15434 16.9444 4.05554 17.0432 3.98983 17.1634L3.59885 17.8783L3.20787 17.1634C3.14216 17.0432 3.04336 16.9444 2.92319 16.8787L2.20832 16.4878L2.92326 16.0967Z" fill="white"/>
<path d="M42.928 41.9338L39.0115 33.8728L38.1476 31.2798L36.7889 31.7324L37.6677 34.3699C37.6775 34.3995 37.6893 34.4285 37.7029 34.4565L41.5679 42.4115V42.9628H43V42.2468C43 42.1384 42.9754 42.0314 42.928 41.9338Z" fill="white"/>
<path d="M35.1095 35.3542C35.0523 35.175 34.927 35.0255 34.7605 34.9379L31.8354 33.4008L28.3658 28.5571C28.5195 28.4775 28.6903 28.4364 28.8634 28.4372C29.0366 28.4381 29.2069 28.4807 29.36 28.5617L31.8013 29.8499C31.93 29.9178 32.0764 29.9449 32.2209 29.9275C32.3654 29.9102 32.5012 29.8491 32.6102 29.7526C32.7192 29.6561 32.7961 29.5287 32.8308 29.3873C32.8655 29.246 32.8563 29.0974 32.8045 28.9614L29.5367 20.396C29.5322 20.3843 29.5275 20.3728 29.5224 20.3613C29.4234 20.137 29.4039 19.8856 29.4671 19.6486C29.5303 19.4117 29.6724 19.2034 29.87 19.0581L34.2036 24.8564C34.2072 24.8612 34.2109 24.866 34.2146 24.8707C34.5683 25.3193 34.8361 25.8294 35.0045 26.3753C35.006 26.3803 35.0076 26.3852 35.0093 26.3901L36.3119 30.3002L37.6706 29.8476L36.3704 25.9447C36.1509 25.2366 35.8035 24.5748 35.3454 23.9921L30.6783 17.7476C30.5899 17.6292 30.4669 17.5411 30.3264 17.4954C30.1859 17.4496 30.0347 17.4485 29.8935 17.4921L29.7642 17.532C29.4278 17.636 29.1171 17.8097 28.8523 18.0418C28.5876 18.2739 28.3747 18.5592 28.2276 18.8791C28.0804 19.199 28.0024 19.5463 27.9984 19.8984C27.9945 20.2505 28.0648 20.5995 28.2048 20.9226L30.7891 27.6966L30.0283 27.2951C29.5632 27.0491 29.0325 26.9559 28.5114 27.0288C27.9903 27.1017 27.5055 27.337 27.1258 27.7012L26.9012 27.9162C26.7767 28.0353 26.6993 28.1954 26.6834 28.367C26.6674 28.5386 26.7139 28.7102 26.8142 28.8503L30.77 34.3727C30.8349 34.4634 30.9202 34.5377 31.019 34.5896L33.8343 36.0691L35.8396 42.3581V42.9628H37.2717V42.2468C37.2717 42.173 37.2603 42.0996 37.2379 42.0292L35.1095 35.3542Z" fill="white"/>
<path d="M12.2673 34.3724L16.2231 28.8501C16.3234 28.71 16.3699 28.5384 16.3539 28.3668C16.338 28.1952 16.2606 28.0351 16.1361 27.916L15.9115 27.7009C15.5318 27.3367 15.0469 27.1015 14.5259 27.0286C14.0048 26.9558 13.4741 27.0489 13.009 27.2949L12.2482 27.6964L14.8325 20.9224C14.9725 20.5993 15.0428 20.2503 15.0389 19.8982C15.035 19.5461 14.9569 19.1988 14.8097 18.8788C14.6626 18.5589 14.4497 18.2736 14.1849 18.0415C13.9201 17.8094 13.6093 17.6357 13.2729 17.5317L13.1438 17.4919C13.0026 17.4482 12.8514 17.4494 12.7109 17.4951C12.5703 17.5409 12.4474 17.629 12.359 17.7474L7.6918 23.992C7.23373 24.5747 6.88637 25.2365 6.66696 25.9446L4.02561 33.8729L0.109024 41.947C0.0617725 42.0443 0.037226 42.1512 0.0372314 42.2594V42.9626H1.46932V42.4239L5.33446 34.4559C5.34801 34.428 5.35973 34.3992 5.36955 34.3697L8.02806 26.39C8.02972 26.3851 8.0313 26.3802 8.03283 26.3752C8.2012 25.8293 8.469 25.3192 8.82274 24.8706C8.8265 24.8659 8.83012 24.8611 8.83375 24.8563L13.1673 19.058C13.3649 19.2033 13.507 19.4116 13.5702 19.6485C13.6334 19.8855 13.6139 20.1369 13.5149 20.3612C13.5099 20.3727 13.5051 20.3842 13.5006 20.3959L10.2328 28.9612C10.1809 29.0972 10.1717 29.2458 10.2065 29.3871C10.2412 29.5285 10.3181 29.6559 10.4271 29.7524C10.5361 29.8489 10.6718 29.91 10.8164 29.9273C10.9609 29.9447 11.1073 29.9176 11.236 29.8497L13.6773 28.5615C13.8304 28.4805 14.0007 28.4378 14.1739 28.437C14.347 28.4362 14.5177 28.4773 14.6715 28.5568L11.2019 33.4006L8.27684 34.9377C8.11033 35.0253 7.98495 35.1748 7.92777 35.354L5.79942 42.029C5.777 42.0994 5.76559 42.1728 5.7656 42.2466V42.9626H7.19769V42.3579L9.203 36.0689L12.0183 34.5894C12.1171 34.5375 12.2023 34.4632 12.2673 34.3724Z" fill="white"/>
<path d="M25.8405 35.9923C25.8757 36.1203 25.9458 36.236 26.0429 36.3264C26.14 36.4169 26.2604 36.4786 26.3905 36.5046L32.8349 37.7935L33.1158 36.3891L27.1043 35.1869L26.1447 31.6971C26.179 31.6692 26.2134 31.6411 26.2477 31.6126C26.575 31.6915 26.9104 31.7312 27.247 31.7308V30.2987C25.6409 30.2987 24.3828 28.9422 24.3828 27.2105C24.3799 26.7978 24.4585 26.3887 24.614 26.0064C24.7696 25.6242 24.9991 25.2764 25.2893 24.983C25.409 24.8626 25.4819 24.7035 25.4952 24.5342C25.5084 24.3649 25.4611 24.1965 25.3616 24.0589C24.9705 23.5165 24.7616 22.864 24.765 22.1954C24.765 20.9614 25.4639 19.8481 26.5455 19.359C26.6435 19.3147 26.7303 19.2489 26.7994 19.1664C26.8685 19.084 26.9181 18.9871 26.9446 18.8828C26.971 18.7786 26.9737 18.6697 26.9523 18.5643C26.931 18.4589 26.8861 18.3597 26.8211 18.274C26.632 18.0257 26.53 17.722 26.5309 17.4099C26.5309 17.1547 26.5991 16.9042 26.7284 16.6842C26.8577 16.4642 27.0434 16.2827 27.2664 16.1586C27.4893 16.0345 27.7414 15.9722 27.9965 15.9782C28.2516 15.9842 28.5005 16.0583 28.7174 16.1928C28.8314 16.2636 28.9631 16.301 29.0974 16.3007C29.2317 16.3003 29.3632 16.2623 29.4769 16.1908C29.9289 15.9053 30.4525 15.7535 30.9871 15.753C32.6105 15.753 33.9313 17.1383 33.9313 18.8412C33.9323 19.3916 33.7912 19.9329 33.5215 20.4127L34.768 21.1179C35.1853 20.3754 35.3903 19.5322 35.3605 18.6809C35.3307 17.8296 35.0672 17.0029 34.5989 16.2914C35.5156 14.6917 35.8094 12.8098 35.4237 11.0068C35.0381 9.20387 34.0003 7.60679 32.5094 6.52203L32.3009 6.37038C31.8177 6.01896 31.3214 5.69309 30.8122 5.39276C30.68 3.91889 29.6773 2.57014 27.9552 1.56565C26.2245 0.556 23.9386 0 21.5186 0C19.0987 0 16.8127 0.556 15.082 1.56565C13.3599 2.57014 12.3572 3.91886 12.225 5.39274C11.7163 5.69292 11.22 6.0188 10.7363 6.37038L10.5279 6.52203C9.6386 7.16649 8.90339 8.00027 8.3753 8.96324L9.62987 9.65394C10.0568 8.87535 10.6513 8.20123 11.3703 7.68018L11.5787 7.52853C14.4672 5.42783 17.947 4.29627 21.5186 4.29627C25.0903 4.29627 28.57 5.42783 31.4585 7.52853L31.6671 7.68018C32.811 8.51258 33.627 9.71957 33.9732 11.0913C34.3194 12.463 34.1739 13.9127 33.562 15.1882C32.9787 14.7461 32.2917 14.4611 31.5667 14.3605C30.9886 12.5694 30.0446 11.1274 28.756 10.0692C27.2858 8.86181 25.3537 8.14541 23.0134 7.93975L22.8881 9.36641C26.5905 9.69168 28.9492 11.3477 30.0737 14.4204C29.7293 14.4963 29.3956 14.6145 29.0803 14.7725C28.5631 14.5541 27.9932 14.4923 27.4412 14.5949C26.8893 14.6976 26.3796 14.96 25.9755 15.3497C25.5714 15.7394 25.2906 16.2392 25.168 16.7871C25.0454 17.335 25.0864 17.9068 25.2859 18.4315C24.3624 19.0847 23.7105 20.0539 23.4536 21.1556C23.1968 22.2572 23.3529 23.4148 23.8924 24.4091C23.277 25.2129 22.9458 26.1982 22.9507 27.2105C22.9507 28.7737 23.6684 30.1279 24.7836 30.9365C23.6306 31.7713 22.4957 32.2221 21.5186 32.2221C20.5416 32.2221 19.4067 31.7713 18.2536 30.9365C19.3688 30.128 20.0865 28.7737 20.0865 27.2105C20.0914 26.1982 19.7602 25.2129 19.1448 24.4091C19.6843 23.4149 19.8405 22.2573 19.5836 21.1556C19.3268 20.054 18.6749 19.0848 17.7513 18.4316C17.9514 17.9068 17.9928 17.3348 17.8705 16.7866C17.7481 16.2385 17.4673 15.7384 17.063 15.3485C16.6588 14.9586 16.1488 14.6962 15.5966 14.5938C15.0443 14.4913 14.4742 14.5535 13.957 14.7725C13.642 14.6147 13.3088 14.4965 12.9648 14.4206C13.5231 12.9063 14.3957 11.7205 15.5658 10.8888C17.0408 9.84026 19.0436 9.30859 21.5186 9.30859V7.8765C18.7403 7.8765 16.4583 8.49727 14.736 9.72151C13.2116 10.8051 12.1147 12.3642 11.4705 14.3605C10.7455 14.4611 10.0585 14.7462 9.47524 15.1883C8.83938 13.8623 8.70793 12.3503 9.10544 10.9345L7.72675 10.5469C7.45806 11.5037 7.3826 12.5044 7.50477 13.4907C7.62694 14.477 7.9443 15.4291 8.43832 16.2914C7.97004 17.0029 7.70656 17.8296 7.67674 18.6809C7.64692 19.5322 7.85189 20.3753 8.26923 21.1179L9.51567 20.4127C9.24605 19.9329 9.10494 19.3916 9.10599 18.8412C9.10598 17.1383 10.4267 15.753 12.0501 15.753C12.5848 15.7535 13.1083 15.9053 13.5604 16.1908C13.674 16.2623 13.8055 16.3004 13.9398 16.3007C14.0741 16.3011 14.2058 16.2637 14.3199 16.1928C14.604 16.0166 14.9409 15.9454 15.272 15.9915C15.6031 16.0376 15.9077 16.1982 16.1328 16.4453C16.358 16.6924 16.4896 17.0105 16.5048 17.3445C16.52 17.6785 16.4179 18.0073 16.2162 18.2739C16.1512 18.3596 16.1063 18.4588 16.085 18.5642C16.0636 18.6696 16.0662 18.7785 16.0927 18.8827C16.1192 18.987 16.1688 19.0839 16.2378 19.1663C16.3069 19.2488 16.3937 19.3146 16.4917 19.3589C17.5733 19.8481 18.2722 20.9615 18.2722 22.1954C18.2756 22.864 18.0668 23.5165 17.6757 24.0588C17.5762 24.1964 17.5288 24.3649 17.5421 24.5342C17.5553 24.7035 17.6283 24.8625 17.7479 24.983C18.0382 25.2764 18.2677 25.6241 18.4232 26.0064C18.5788 26.3886 18.6574 26.7978 18.6544 27.2105C18.6544 28.9422 17.3963 30.2987 15.7903 30.2987V31.7308C16.1268 31.7312 16.4622 31.6915 16.7894 31.6127C16.8238 31.6412 16.8582 31.6694 16.8926 31.6973L15.933 35.1869L9.92148 36.3892L10.2023 37.7936L16.6467 36.5047C16.7769 36.4787 16.8972 36.417 16.9944 36.3265C17.0915 36.236 17.1616 36.1204 17.1967 35.9924L18.1353 32.5793C19.298 33.2869 20.4453 33.6541 21.5186 33.6541C22.592 33.6541 23.7393 33.2869 24.9019 32.5793L25.8405 35.9923ZM21.5186 2.86418C18.9268 2.85944 16.3637 3.40747 14.0005 4.4717C15.0127 2.73323 18.0466 1.43209 21.5186 1.43209C24.9907 1.43209 28.0246 2.73323 29.0368 4.4717C26.6735 3.40746 24.1105 2.85943 21.5186 2.86418Z" fill="white"/>
<path d="M25.8149 38.0177V37.9504H24.3828V38.0177C24.3813 38.569 24.5762 39.1028 24.9326 39.5234C25.2889 39.9441 25.7834 40.2241 26.3274 40.3132L33.5737 41.521L33.8091 40.1083L26.5628 38.9006C26.3536 38.8663 26.1634 38.7586 26.0264 38.5968C25.8893 38.4351 25.8143 38.2298 25.8149 38.0177Z" fill="white"/>
<path d="M17.2224 38.0177C17.223 38.2298 17.148 38.4351 17.0109 38.5968C16.8739 38.7586 16.6837 38.8663 16.4745 38.9006L9.22815 40.1083L9.46362 41.521L16.7099 40.3132C17.2539 40.2241 17.7484 39.9441 18.1047 39.5235C18.4611 39.1028 18.656 38.569 18.6545 38.0177V37.9504H17.2224V38.0177Z" fill="white"/>
</g>
</svg>
