<svg width="43" height="43" viewBox="0 0 43 43" fill="none" xmlns="http://www.w3.org/2000/svg">
<mask id="mask0" mask-type="alpha" maskUnits="userSpaceOnUse" x="0" y="0" width="43" height="43">
<rect width="43" height="43" fill="#C4C4C4"/>
</mask>
<g mask="url(#mask0)">
<path d="M38.2243 4.9809H37.3137V3.55778C37.3114 1.5938 35.7199 0.00231256 33.7559 0H9.56297C7.59898 0.00231256 6.00749 1.5938 6.00518 3.55778V4.9809H5.09457C2.45558 4.97894 0.314597 7.11672 0.312729 9.7558C0.31184 10.9808 0.781467 12.1595 1.62466 13.0482L6.00518 17.6746V21.3467H0.312729V22.7698H19.8368C20.1636 22.7694 20.4484 22.9919 20.5272 23.309L21.2387 26.1552C21.3339 26.5365 21.102 26.9227 20.7207 27.018C20.6643 27.032 20.6064 27.0391 20.5483 27.0391H15.967C15.574 27.0392 15.2555 27.3579 15.2556 27.7509C15.2557 28.0899 15.4949 28.3818 15.8273 28.4484L17.1788 28.7187C17.7436 28.8331 18.1626 29.3105 18.2024 29.8854H14.8384L11.4891 26.5361C11.3557 26.4027 11.1748 26.3276 10.9861 26.3276H0.312729V27.7507H6.00518V33.4432H0V34.8663H8.53868C8.72742 34.8663 8.90842 34.7913 9.04184 34.6578L12.3914 31.3085H15.7553C15.7156 31.8836 15.2964 32.3612 14.7314 32.4752L13.3802 32.7455C12.9949 32.8227 12.7451 33.1977 12.8223 33.583C12.889 33.9153 13.1807 34.1544 13.5196 34.1547H18.1009C18.4939 34.1547 18.8125 34.4732 18.8125 34.8663C18.8125 34.9244 18.8054 34.9823 18.7913 35.0386L18.0798 37.8849C18.001 38.202 17.7162 38.4245 17.3894 38.4241H0V39.8472H6.00518V41.9818C6.00518 42.3748 6.32378 42.6934 6.71674 42.6934H36.6021C36.9951 42.6934 37.3137 42.3748 37.3137 41.9818V17.6739L41.6928 13.0499C43.5075 11.1302 43.4223 8.10276 41.5026 6.28811C40.6164 5.45035 39.4435 4.98276 38.2239 4.9809H38.2243ZM12.0965 29.8854C11.9077 29.8854 11.7268 29.9604 11.5934 30.0939L8.24409 33.4432H7.4283V27.7507H10.6915L12.8262 29.8854H12.0965ZM35.8906 3.55778V4.9809H27.3341L27.0212 3.93651C26.724 2.98489 26.0997 2.10843 25.291 1.42311H33.7559C34.9343 1.42436 35.8892 2.37936 35.8906 3.55778ZM28.0634 11.3849V10.6733H34.7305L29.9274 14.9427H24.5057V13.5196H25.9288C27.1072 13.5182 28.0621 12.5632 28.0634 11.3849ZM27.0336 8.61375C26.7926 8.73427 26.6403 8.98073 26.6403 9.25024V11.3849C26.6398 11.7777 26.3215 12.0959 25.9288 12.0965H23.7941C23.4011 12.0965 23.0825 12.4151 23.0825 12.808V14.9427H18.1016V12.0698C19.7857 11.9438 21.3175 11.0482 22.2532 9.6423C22.4393 9.36026 22.4014 8.98625 22.1625 8.74734L21.4722 8.05695C21.2916 7.87471 21.1901 7.62869 21.1897 7.37208C21.1896 7.26882 21.2064 7.16626 21.2393 7.06843C21.3695 6.67164 21.7399 6.40356 22.1575 6.40401H23.0825C23.4755 6.40401 23.7941 6.08541 23.7941 5.69245V2.0781C24.6845 2.61986 25.3773 3.44722 25.6599 4.35277L26.1278 5.92211C26.149 6.0066 26.1856 6.08657 26.2355 6.15799L27.7184 8.27184L27.0336 8.61375ZM13.3914 14.9427L8.5884 10.6733H16.2388L16.6785 11.5527V14.9427H13.3914ZM21.5883 1.42311C21.8518 1.42738 22.1141 1.45922 22.371 1.51811V4.9809H22.1575C20.8364 4.98116 19.7657 6.05232 19.766 7.37333C19.7661 8.00715 20.0178 8.61499 20.4658 9.06345L20.7156 9.31321C20.3953 9.66934 20.0147 9.96624 19.5913 10.1905C19.0464 10.4813 18.4422 10.6434 17.8249 10.6641L16.4135 7.84064C16.3237 7.65768 16.2457 7.46921 16.1798 7.27638C17.9045 6.26374 18.5814 4.10915 17.7459 2.2921C17.8774 2.1956 18.0138 2.10594 18.1545 2.02349C18.8274 1.63098 19.5924 1.42374 20.3715 1.42311H21.5883ZM14.1881 1.42311C15.5635 1.42311 16.6785 2.53812 16.6785 3.91356C16.6785 5.289 15.5635 6.40401 14.1881 6.40401C12.8126 6.40401 11.6976 5.289 11.6976 3.91356C11.6992 2.53874 12.8134 1.42471 14.1881 1.42311ZM7.4283 3.55778C7.42963 2.37936 8.38454 1.42445 9.56297 1.42311H11.1715C10.3492 2.41244 10.0702 3.74474 10.4263 4.9809H7.4283V3.55778ZM7.4283 19.1777L9.48194 21.3467H7.4283V19.1777ZM18.1009 32.7316H16.7195C16.7529 32.6819 16.7848 32.6312 16.8151 32.5791C17.0354 32.1912 17.1555 31.7545 17.1646 31.3085H18.8132C19.1195 31.3085 19.3915 31.1124 19.4883 30.8217C19.7327 30.0874 19.6503 29.2836 19.2621 28.6141C19.2319 28.5623 19.2003 28.5116 19.1669 28.4623H20.5483C21.7273 28.4624 22.6831 27.5066 22.6831 26.3277C22.6831 26.1532 22.6617 25.9792 22.6194 25.8099L21.9079 22.9637C21.6713 22.0127 20.8168 21.3456 19.8368 21.3467H15.967C15.9678 20.561 16.6044 19.9244 17.3901 19.9236H22.9971C24.1822 19.9201 25.2526 20.631 25.7092 21.7247C25.853 22.0843 25.9275 22.4679 25.9288 22.8553V24.819C25.9307 25.5969 25.6216 26.3433 25.0699 26.8919C24.5559 27.3999 24.1786 28.0296 23.9731 28.7225C23.9678 28.7391 23.9636 28.7566 23.9598 28.7743C23.8491 29.1635 23.7933 29.5662 23.7941 29.9708V34.0692C23.7922 35.6876 22.4807 36.9991 20.8624 37.0009H20.2363C20.0792 36.9977 19.9281 36.9404 19.8083 36.8387L20.172 35.3839C20.4579 34.2402 19.7625 33.0812 18.6187 32.7953C18.4494 32.7529 18.2754 32.7315 18.1009 32.7316ZM7.4283 39.8472H12.4965L11.9273 41.2703H7.4283V39.8472ZM35.8906 41.2703H31.3916L28.7948 34.7784L29.461 30.1061C31.2072 29.292 32.326 27.5427 32.3328 25.616C32.3314 24.8696 32.1599 24.1332 31.8312 23.463L35.8906 19.1764V41.2703ZM30.7573 24.597C31.1576 25.9104 30.7547 27.3368 29.7264 28.2467L30.1589 25.229L30.7573 24.597ZM40.6609 12.0698L28.9696 24.4153C28.8687 24.5221 28.8032 24.6575 28.7823 24.803L28.1063 29.5205C28.1046 29.5316 28.1032 29.5438 28.1022 29.5561L27.3594 34.7656C27.3417 34.8889 27.3566 35.0146 27.4028 35.1303L29.8587 41.2703H13.4602L14.0294 39.8472H17.3891C18.3526 39.8475 19.1964 39.2009 19.4465 38.2704C19.6976 38.3716 19.9657 38.4237 20.2363 38.4241H20.8624C23.2663 38.4213 25.2145 36.4731 25.2172 34.0692V29.9708C25.2164 29.6878 25.2568 29.4061 25.3371 29.1348C25.3416 29.1198 25.3454 29.1043 25.3488 29.0879C25.4904 28.6377 25.7401 28.229 26.0761 27.8976C26.8954 27.0829 27.3548 25.9744 27.3519 24.819V22.8553C27.3498 22.2837 27.2396 21.7178 27.0271 21.1872C26.3521 19.5578 24.7607 18.4969 22.9971 18.5005H17.3901C15.8189 18.5022 14.5456 19.7755 14.5439 21.3467H11.4416L2.6566 12.068C2.06369 11.4472 1.7338 10.6211 1.73584 9.76273C1.73798 7.9086 3.24052 6.40614 5.09457 6.40401H11.1715C12.0576 7.49091 13.4627 8.01275 14.8435 7.76771C14.9275 8.00848 15.0259 8.24383 15.1384 8.47268L15.5271 9.25024H6.71674C6.32378 9.25015 6.00509 9.56866 6.005 9.96161C6.00492 10.1649 6.0919 10.3586 6.24391 10.4937L12.6479 16.1861C12.7782 16.3019 12.9464 16.3658 13.1207 16.3658H30.1981C30.3724 16.3658 30.5406 16.3019 30.6709 16.1861L37.0749 10.4937C37.3687 10.2326 37.3952 9.78292 37.1342 9.48914C36.9991 9.33713 36.8054 9.25024 36.6021 9.25024H28.9432L29.0932 9.17517C29.4448 8.99906 29.5871 8.57123 29.411 8.21955C29.3955 8.18842 29.3776 8.15853 29.3577 8.13007L28.1467 6.40401H38.2241C40.0772 6.40205 41.581 7.90281 41.5829 9.75589C41.5838 10.617 41.2537 11.4454 40.6607 12.0698H40.6609Z" fill="white"/>
</g>
</svg>
