<svg width="43" height="43" viewBox="0 0 43 43" fill="none" xmlns="http://www.w3.org/2000/svg">
<mask id="mask0" mask-type="alpha" maskUnits="userSpaceOnUse" x="0" y="0" width="43" height="43">
<rect width="43" height="43" fill="#C4C4C4"/>
</mask>
<g mask="url(#mask0)">
<path fill-rule="evenodd" clip-rule="evenodd" d="M20.6618 0C12.0134 0 4.97224 6.74083 4.97224 15.0332V20.3779C4.97224 26.3042 9.86058 31.1579 15.9964 31.5001V31.9048L4.1219 35.2121L4.12012 35.2126C2.25609 35.7549 1 37.3756 1 39.2465V40.1687C1 40.1687 1.26562 41.0455 2 41.0455C2.73438 41.0455 2.65402 40.1687 2.65402 40.1687V39.2464C2.65402 38.0839 3.43426 37.0742 4.59162 36.7371L17.6505 33.1V29.9058C18.7137 30.3393 19.8823 30.5794 21.1082 30.5794C22.3041 30.5794 23.4779 30.3487 24.566 29.9061V42.0227C24.566 42.0227 24.566 42.9999 25.393 43C26.22 43 26.22 42.0227 26.22 42.0227V20.1972L26.2053 20.1234C25.2279 15.1995 20.7177 11.6298 15.4846 11.6298H12.2475V16.7773V22.088C12.2475 24.9484 13.7312 27.4812 15.9966 29.0198V29.9069C10.766 29.5676 6.62643 25.4196 6.62643 20.3779V15.4298V15.0332C6.62643 7.62393 12.9199 1.59058 20.662 1.59058C28.404 1.59058 34.6975 7.62393 34.6975 15.0332V41.3592H34.6529V42.0227C34.6529 42.0227 34.6529 42.9999 35.5022 43C36.3514 43 36.3514 42.0227 36.3514 42.0227V15.0332C36.3513 6.74083 29.3102 0 20.6618 0ZM13.9013 17.1738V13.2203H15.4845C19.6652 13.2203 23.2966 15.9019 24.4019 19.6911C24.4649 19.907 24.5197 20.1266 24.5659 20.3494V28.1428C23.5093 28.6974 22.3229 28.9888 21.1082 28.9888C17.1315 28.9888 13.9013 25.8901 13.9013 22.088V17.1738Z" fill="white"/>
<path d="M33.0334 21.8481H31.3794V42.0222C31.3794 42.0222 31.3794 42.999 32.2064 42.9995C33.0334 43 33.0334 42.0222 33.0334 42.0222V21.8481Z" fill="white"/>
<path d="M29.7164 28.6896H28.0624V42.0227C28.0624 42.0227 28.0624 43 28.8894 43C29.7164 43 29.7164 42.0227 29.7164 42.0227V28.6896Z" fill="white"/>
<path d="M38.5218 35.3601L38.3783 35.3023L37.7356 36.7679L37.8833 36.8274C38.905 37.2384 39.5625 38.1885 39.5625 39.2463V40.1686C39.5625 40.1686 39.5625 41.1547 40.3895 41.1459C41.2166 41.1371 41.2166 40.1686 41.2166 40.1686V39.2463C41.2166 37.5429 40.1573 36.0181 38.5218 35.3601Z" fill="white"/>
<path d="M2.37251 4.22705L4.05203 5.14562L4.97059 6.82525C5.03226 6.93799 5.12313 7.03205 5.23367 7.09758C5.3442 7.16311 5.47034 7.19769 5.59884 7.19769C5.72734 7.19769 5.85348 7.16311 5.96401 7.09758C6.07455 7.03205 6.16542 6.93799 6.22709 6.82525L7.14566 5.14562L8.8252 4.22705C8.93795 4.1654 9.03202 4.07455 9.09756 3.96402C9.1631 3.85349 9.19769 3.72736 9.19769 3.59886C9.1977 3.47036 9.16312 3.34423 9.09759 3.2337C9.03206 3.12317 8.93799 3.03231 8.82525 2.97065L7.14568 2.05199L6.22711 0.372442C6.16544 0.259705 6.07458 0.165638 5.96404 0.100108C5.8535 0.0345781 5.72737 0 5.59887 0C5.47037 0 5.34423 0.0345781 5.23369 0.100108C5.12316 0.165638 5.03229 0.259705 4.97062 0.372442L4.05203 2.05199L2.37247 2.97069C2.25973 3.03235 2.16565 3.1232 2.10012 3.23374C2.03458 3.34427 2 3.4704 2 3.5989C2 3.72739 2.03458 3.85352 2.10012 3.96405C2.16565 4.07458 2.25973 4.16544 2.37247 4.22709L2.37251 4.22705ZM4.92326 3.20779C5.04338 3.14205 5.14215 3.04328 5.20788 2.92316L5.59886 2.20825L5.98984 2.92316C6.05557 3.04328 6.15434 3.14206 6.27447 3.20779L6.98938 3.59885L6.27451 3.98982C6.15434 4.05551 6.05554 4.15429 5.98983 4.27445L5.59885 4.98936L5.20787 4.27445C5.14216 4.1543 5.04336 4.05551 4.92319 3.98982L4.20832 3.59885L4.92326 3.20779Z" fill="white"/>
<path d="M25.3725 11.227L27.052 12.1456L27.9706 13.8252C28.0323 13.938 28.1231 14.0321 28.2337 14.0976C28.3442 14.1631 28.4703 14.1977 28.5988 14.1977C28.7273 14.1977 28.8535 14.1631 28.964 14.0976C29.0746 14.0321 29.1654 13.938 29.2271 13.8252L30.1457 12.1456L31.8252 11.227C31.9379 11.1654 32.032 11.0745 32.0976 10.964C32.1631 10.8535 32.1977 10.7274 32.1977 10.5989C32.1977 10.4704 32.1631 10.3442 32.0976 10.2337C32.0321 10.1232 31.938 10.0323 31.8252 9.97065L30.1457 9.05199L29.2271 7.37244C29.1654 7.2597 29.0746 7.16564 28.964 7.10011C28.8535 7.03458 28.7274 7 28.5989 7C28.4704 7 28.3442 7.03458 28.2337 7.10011C28.1232 7.16564 28.0323 7.2597 27.9706 7.37244L27.052 9.05199L25.3725 9.97069C25.2597 10.0323 25.1657 10.1232 25.1001 10.2337C25.0346 10.3443 25 10.4704 25 10.5989C25 10.7274 25.0346 10.8535 25.1001 10.9641C25.1657 11.0746 25.2597 11.1654 25.3725 11.2271L25.3725 11.227ZM27.9233 10.2078C28.0434 10.1421 28.1422 10.0433 28.2079 9.92316L28.5989 9.20825L28.9898 9.92316C29.0556 10.0433 29.1543 10.1421 29.2745 10.2078L29.9894 10.5988L29.2745 10.9898C29.1543 11.0555 29.0555 11.1543 28.9898 11.2745L28.5989 11.9894L28.2079 11.2745C28.1422 11.1543 28.0434 11.0555 27.9232 10.9898L27.2083 10.5988L27.9233 10.2078Z" fill="white"/>
</g>
</svg>
