<svg width="43" height="43" viewBox="0 0 43 43" fill="none" xmlns="http://www.w3.org/2000/svg">
<mask id="mask0" mask-type="alpha" maskUnits="userSpaceOnUse" x="0" y="0" width="43" height="43">
<rect width="43" height="43" fill="#C4C4C4"/>
</mask>
<g mask="url(#mask0)">
<path d="M42.3202 20.0677C42.3202 18.5929 41.1203 17.3931 39.6455 17.3931H25.3719C24.908 17.3931 24.532 17.7691 24.532 18.2329C24.532 18.6967 24.908 19.0728 25.3719 19.0728H39.6455C40.1942 19.0728 40.6406 19.519 40.6406 20.0678C40.6406 20.6164 40.1942 21.0628 39.6455 21.0628H3.67474C3.12607 21.0628 2.67969 20.6165 2.67969 20.0677C2.67969 19.5191 3.12607 19.0728 3.67474 19.0728H17.9822C18.4461 19.0728 18.8221 18.6967 18.8221 18.2329C18.8221 17.7691 18.4461 17.3931 17.9822 17.3931H3.67474C2.19989 17.3931 1 18.593 1 20.0678C1 21.3748 1.94256 22.4651 3.18351 22.6964V39.5806C3.18351 41.466 4.71749 42.9999 6.60302 42.9999H36.8012C38.6868 42.9999 40.2207 41.466 40.2207 39.5806V22.6795C41.4199 22.4155 42.3202 21.345 42.3202 20.0677ZM31.4695 22.7424V28.9643H26.0777V22.7424H31.4695ZM4.8632 33.6136V30.6441H38.541V33.6136H4.8632ZM24.398 22.7424V28.9643H19.0062V22.7424H24.398ZM17.3265 22.7424V28.9643H11.9347V22.7424H17.3265ZM10.255 22.7424V28.9643H4.8632V22.7424H10.255ZM38.541 28.9643H33.1492V22.7424H38.541V28.9643ZM4.8632 39.5806V35.2936H10.255V41.3202H6.60302C5.64367 41.3202 4.8632 40.5398 4.8632 39.5806ZM11.9347 35.2936H17.3265V41.3202H11.9347V35.2936ZM19.0062 35.2936H24.398V41.3202H19.0062V35.2936ZM26.0777 35.2936H31.4695V41.3202H26.0777V35.2936ZM38.541 39.5806C38.541 40.5399 37.7605 41.3203 36.8012 41.3203H33.1492V35.2936H38.541V39.5806Z" fill="white"/>
<path d="M12.6757 9.86284C13.0408 11.0174 12.7192 12.1486 11.7199 13.2247C11.4043 13.5646 11.424 14.0961 11.7638 14.4117C12.0992 14.723 12.6393 14.7029 12.9508 14.3678C14.7741 12.4041 14.665 10.5171 14.2524 9.2799C13.8185 7.97856 12.9539 7.13754 12.9172 7.10235C12.5827 6.78103 12.0496 6.79018 11.7283 7.12461C11.4069 7.45903 11.416 7.98931 11.7505 8.31064C11.7567 8.31685 12.3836 8.93901 12.6757 9.86284Z" fill="white"/>
<path d="M21.0218 11.8563C21.3517 12.1733 21.8923 12.1625 22.2093 11.8326C22.5307 11.4982 22.5201 10.9666 22.1856 10.6451C22.1796 10.6394 21.5795 10.0457 21.28 9.14738C20.8889 7.97462 21.2048 6.82605 22.2191 5.73383C22.5347 5.39395 22.515 4.86249 22.1752 4.54688C21.8353 4.23126 21.3039 4.25108 20.9882 4.5908C19.1649 6.55444 19.2739 8.44149 19.6865 9.67867C20.1206 10.9802 20.9853 11.8211 21.0218 11.8563Z" fill="white"/>
<path d="M31.7058 15.4161C31.9103 15.4161 32.1154 15.3417 32.2771 15.1916C32.6169 14.876 32.6366 14.3447 32.321 14.0047C31.1633 12.7579 30.7932 11.4439 31.2212 10.0992C31.5605 9.03323 32.2828 8.31811 32.2874 8.31357C32.2989 8.30249 32.3101 8.29106 32.3209 8.27947C34.3419 6.10293 34.2223 4.01525 33.7661 2.64714C33.2849 1.20395 32.3279 0.27315 32.2874 0.234265C31.9529 -0.0871437 31.4212 -0.0764777 31.0999 0.257948C30.7785 0.592375 30.7891 1.124 31.1236 1.44549C31.2367 1.55417 33.8593 4.13912 31.1017 7.12402C30.9499 7.27578 30.0921 8.17433 29.6449 9.51539C29.1887 10.8835 29.0691 12.9712 31.0901 15.1477C31.2556 15.3259 31.4804 15.4161 31.7058 15.4161Z" fill="white"/>
<path d="M22.2958 17.6391C21.973 17.3163 21.431 17.3162 21.1083 17.6391C20.7849 17.9625 20.7848 18.5032 21.1083 18.8267C21.4313 19.1497 21.9728 19.1497 22.2958 18.8267C22.6191 18.5034 22.6185 17.9624 22.2958 17.6391Z" fill="white"/>
</g>
</svg>
