<svg width="43" height="43" viewBox="0 0 43 43" fill="none" xmlns="http://www.w3.org/2000/svg">
<mask id="mask0" mask-type="alpha" maskUnits="userSpaceOnUse" x="0" y="0" width="43" height="43">
<rect width="43" height="43" fill="#C4C4C4"/>
</mask>
<g mask="url(#mask0)">
<path d="M21.5183 24.6823C21.0996 24.4831 20.5987 24.6607 20.3993 25.0794L20.2601 25.372C20.0608 25.7906 20.2386 26.2916 20.6571 26.491C20.7737 26.5465 20.8965 26.5728 21.0175 26.5728C21.3313 26.5728 21.6323 26.3961 21.7761 26.0939L21.9154 25.8013C22.1148 25.3825 21.9369 24.8816 21.5183 24.6823Z" fill="white"/>
<path d="M12.1087 19.8162C11.7808 19.4883 11.2492 19.4883 10.9213 19.8162C10.2253 20.5124 9.09256 20.5124 8.39641 19.8162C8.06854 19.4883 7.53692 19.4883 7.20904 19.8162C6.88117 20.1441 6.88117 20.6757 7.20904 21.0036C7.88444 21.6789 8.77166 22.0167 9.65887 22.0167C10.5461 22.0167 11.4332 21.679 12.1086 21.0036C12.4365 20.6758 12.4365 20.1442 12.1087 19.8162Z" fill="white"/>
<path d="M40.4105 2.2306C37.4525 -0.727337 32.6458 -0.735903 29.676 2.20305C28.749 1.74281 27.7648 1.348 26.7271 1.02298C23.3228 -0.0433675 20.5377 -0.00381084 20.2961 0.00148018C15.7416 0.00450362 11.7688 1.91557 9.92591 4.99049C9.68269 5.39631 9.48003 5.8169 9.31744 6.24967C8.44946 7.07616 4.53243 11.1243 4.53243 16.8643C4.53243 20.6874 2.6935 22.6835 1.59742 23.5331C1.18783 23.8505 0.966028 24.3491 1.00424 24.8666C1.04245 25.3843 1.33514 25.8451 1.78723 26.0991C2.20026 26.3313 2.66478 26.5541 3.11393 26.7696C3.51109 26.9601 4.07547 27.2309 4.35068 27.4071V28.9025C4.35068 29.1071 4.31163 29.3069 4.23462 29.4966L4.02642 30.0091C3.74129 30.7107 3.84627 31.514 4.29878 32.1186V32.3027C4.29878 32.8475 4.53864 33.3518 4.93816 33.6939V34.6797C4.93816 36.7923 6.65681 38.511 8.76944 38.511H11.2485C11.7122 38.511 12.0881 38.135 12.0881 37.6714C12.0881 37.2077 11.7122 36.8318 11.2485 36.8318H8.76944C7.58283 36.8318 6.61726 35.8663 6.61726 34.6796V33.231C6.61726 32.8946 6.41645 32.5908 6.10705 32.4588L6.07077 32.4433C6.01433 32.4192 5.97788 32.364 5.97788 32.3027V31.8288C5.97788 31.6405 5.91456 31.4576 5.79816 31.3096L5.65001 31.1213C5.54301 30.9854 5.51706 30.8013 5.58215 30.6411L5.79035 30.1285C5.94924 29.7373 6.02987 29.3248 6.02987 28.9025V27.1151C6.02987 26.3061 5.20573 25.9107 3.84031 25.2556C3.48178 25.0836 3.11309 24.9066 2.78698 24.7322C4.13728 23.6302 6.2117 21.2262 6.2117 16.8642C6.2117 13.7079 7.61667 11.0779 8.83554 9.3896C8.90214 10.8525 9.34465 12.3824 10.1636 13.9142C12.3184 17.9443 16.0708 19.6336 19.0859 20.9908C21.9547 22.2821 23.5783 23.095 23.5914 24.7848C23.6008 26.0257 23.3155 26.9387 22.7431 27.4982C22.0823 28.1444 21.2052 28.1279 21.1999 28.1278C20.9181 28.108 20.654 28.2311 20.4824 28.4552C20.3107 28.6792 20.2717 28.9751 20.3642 29.2418C20.3888 29.3128 20.9835 30.9992 22.3452 32.6425C24.0471 34.6964 26.1953 35.7801 28.5906 35.8044L30.8466 42.4187C30.9656 42.7678 31.2918 42.9875 31.6411 42.9875C31.731 42.9875 31.8224 42.973 31.9122 42.9422C32.3511 42.7926 32.5855 42.3154 32.4358 41.8766L30.214 35.3627C34.4026 33.1181 37.3475 29.6362 38.7514 25.2511C39.8705 21.7556 39.924 17.8333 38.9784 14.1185C39.4965 13.8036 39.9766 13.4276 40.4104 12.9938C43.3779 10.0265 43.3779 5.1981 40.4105 2.2306ZM37.1523 24.7394C35.8348 28.855 33.0061 32.0954 28.9665 34.1199C26.9239 34.2116 25.1424 33.3676 23.6695 31.6089C23.0757 30.8999 22.6459 30.17 22.3644 29.6176C22.8435 29.4678 23.3937 29.2008 23.889 28.7263C24.819 27.8356 25.2838 26.5052 25.2705 24.7721C25.2487 21.9235 22.59 20.7268 19.7753 19.4598C16.8476 18.1419 13.5293 16.6482 11.6444 13.1226C10.4735 10.9324 10.1978 8.84983 10.8219 7.02392C10.8245 7.01695 10.827 7.0099 10.8294 7.00293C10.9662 6.60736 11.1447 6.22355 11.3664 5.8536C12.909 3.27956 16.3349 1.6805 20.3072 1.6805C20.3153 1.6805 20.3233 1.68041 20.3314 1.68016C20.3575 1.67932 23.0037 1.61608 26.2253 2.62515C30.5124 3.96815 33.6705 6.47047 35.6116 10.0626C38.0648 14.6029 38.6409 20.0895 37.1523 24.7394ZM38.4766 12.4403C38.102 11.3488 37.6398 10.2841 37.0887 9.26446C35.7105 6.71402 33.7193 4.61995 31.222 3.06481C33.5501 1.1131 37.0352 1.22984 39.2232 3.41788C41.536 5.73065 41.536 9.49382 39.2232 11.8066C38.9904 12.0395 38.7409 12.251 38.4766 12.4403Z" fill="white"/>
<path d="M22.5381 39.3306L19.9076 34.7745L19.8187 31.6634C19.7443 29.0581 17.729 26.934 15.1312 26.7226C13.2208 26.5669 11.3867 27.6263 10.5663 29.3583L10.5248 29.4458C9.43718 31.7415 10.2218 34.5187 12.3499 35.906L14.9685 37.6129L17.8292 42.5676C17.9846 42.837 18.2668 42.9876 18.557 42.9875C18.6993 42.9875 18.8438 42.9512 18.976 42.8749C19.3775 42.6431 19.5151 42.1296 19.2833 41.728L16.742 37.3263L17.7545 36.7417L18.767 36.1571L21.0838 40.1699C21.3155 40.5714 21.829 40.709 22.2307 40.4772C22.6324 40.2456 22.77 39.7322 22.5381 39.3306ZM15.622 36.0345L13.267 34.4994C11.8391 33.5686 11.3126 31.7051 12.0424 30.1646L12.0839 30.0771C12.5732 29.0444 13.6278 28.3868 14.7587 28.3868C14.8372 28.3868 14.9161 28.39 14.9951 28.3964C16.7382 28.5382 18.0903 29.9635 18.1402 31.7116L18.2209 34.5339L15.622 36.0345Z" fill="white"/>
<path d="M23.7964 41.5668C23.6402 41.4106 23.4235 41.3208 23.2028 41.3208C22.9811 41.3208 22.7654 41.4107 22.6092 41.5668C22.4529 41.7229 22.3632 41.9396 22.3632 42.1604C22.3632 42.3812 22.453 42.5978 22.6092 42.754C22.7653 42.9101 22.9811 43 23.2028 43C23.4235 43 23.6401 42.9101 23.7964 42.754C23.9525 42.5979 24.0423 42.3812 24.0423 42.1604C24.0423 41.9396 23.9525 41.723 23.7964 41.5668Z" fill="white"/>
<path d="M16.916 4.9216C16.7336 4.49538 16.2403 4.29735 15.8138 4.47968C14.3331 5.11267 13.2652 6.17969 12.8067 7.48431C12.3473 8.79152 12.5198 10.2594 13.3056 11.729C13.4568 12.012 13.7468 12.1729 14.0467 12.1729C14.1803 12.1729 14.3158 12.1409 14.4418 12.0736C14.8507 11.8549 15.005 11.3462 14.7864 10.9372C14.2205 9.87879 14.0875 8.90431 14.3909 8.04079C14.6915 7.18557 15.4312 6.4691 16.474 6.02348C16.9003 5.8414 17.0981 5.34808 16.916 4.9216Z" fill="white"/>
<path d="M18.9638 3.86353L18.9168 3.86361C18.4532 3.8663 18.0794 4.2444 18.0822 4.70816C18.0849 5.17016 18.4603 5.54279 18.9217 5.54279C18.9234 5.54279 18.925 5.54279 18.9267 5.54279L18.9638 5.54271C19.4275 5.54271 19.8034 5.1668 19.8034 4.70312C19.8034 4.23944 19.4275 3.86353 18.9638 3.86353Z" fill="white"/>
</g>
</svg>
